<?xml version="1.0" encoding="utf-8"?>
<!-- Generator: Adobe Illustrator 15.1.0, SVG Export Plug-In . SVG Version: 6.00 Build 0)  -->
<!DOCTYPE svg PUBLIC "-//W3C//DTD SVG 1.1//EN" "http://www.w3.org/Graphics/SVG/1.1/DTD/svg11.dtd">
<svg version="1.1" id="Layer_1" xmlns="http://www.w3.org/2000/svg" xmlns:xlink="http://www.w3.org/1999/xlink" x="0px" y="0px"
	 width="1000px" height="1000px" viewBox="0 0 1000 1000" enable-background="new 0 0 1000 1000" xml:space="preserve">
<g>
	<g>
		<path opacity="0.15" fill="#7974F2" d="M339.466,859.211l103.52,59.769c7.036,4.063,18.443,4.063,25.481,0l14.336-8.274
			c7.035-4.065,7.035-10.65,0-14.713l-103.521-59.769c-7.037-4.062-18.446-4.062-25.482,0l-14.333,8.275
			C332.43,848.561,332.43,855.149,339.466,859.211z"/>
		<g>
			<g>
				<linearGradient id="SVGID_1_" gradientUnits="userSpaceOnUse" x1="391.3359" y1="723.9004" x2="470.6846" y2="864.8067">
					<stop  offset="0" style="stop-color:#6460E6"/>
					<stop  offset="0.5496" style="stop-color:#524ECA"/>
					<stop  offset="1" style="stop-color:#423EAF"/>
				</linearGradient>
				<path fill="url(#SVGID_1_)" d="M459.357,844.104c0-36.521-25.639-80.928-57.265-99.187c-15.815-9.13-30.131-9.993-40.496-4.011
					l18.087-10.444c10.363-5.981,24.68-5.117,40.496,4.013c31.625,18.262,57.265,62.667,57.265,99.188
					c0,18.261-6.41,31.093-16.774,37.072l-18.088,10.443C452.947,875.197,459.357,862.364,459.357,844.104z"/>
				<g>
					<path fill="#8985FF" d="M344.824,777.982c0,36.519,25.639,80.928,57.267,99.188c31.627,18.259,57.266,3.457,57.266-33.065
						c0-36.521-25.639-80.928-57.265-99.187C370.463,726.658,344.824,741.461,344.824,777.982z"/>
				</g>
			</g>
			<g opacity="0.9">
				<path fill="#FFFFFF" d="M399.936,837.657c-1.899-1.098-3.67-3.233-4.704-5.677l-19.592-46.365
					c-1.677-3.972-0.93-7.546,1.669-7.984c2.605-0.435,6.067,2.429,7.747,6.4l14.692,34.772l24.822-33.826
					c1.583-2.162,5.019-1.176,7.677,2.179c2.659,3.363,3.532,7.839,1.949,9.992l-29.444,40.126
					c-0.992,1.356-2.775,1.517-4.714,0.441C400.005,837.698,399.969,837.677,399.936,837.657z"/>
				<path fill="#FFFFFF" d="M429.491,815.193l-5.607,7.64l-0.014,23.617c-0.003,5.499-3.879,7.73-8.646,4.977l-36.418-21.051
					c-4.765-2.756-8.636-9.463-8.631-14.964l0.021-42.038c0.002-5.496,3.88-7.734,8.646-4.979l34.664,20.036l3.284-4.476
					c-0.503-0.35-1.012-0.679-1.528-0.979l-36.418-21.049c-7.852-4.538-14.246-0.859-14.251,8.208l-0.021,42.037
					c-0.004,9.064,6.381,20.132,14.232,24.671l36.419,21.051c7.85,4.536,14.246,0.859,14.25-8.205L429.491,815.193z"/>
			</g>
		</g>
	</g>
	<g>
		<path opacity="0.15" fill="#7974F2" d="M164.031,890.7c9.361,9.101,35.127,2.213,45.637,22.682
			c12.509,24.357-62.604,50.268-113.956,10.509c-61.112-47.312,26.38-73.136,48.127-58.637
			C160.437,876.316,154.074,881.02,164.031,890.7z"/>
		<g>
			<g>
				<path fill="#FFBA7B" d="M179.627,471.138c1.073,5.052,2.155,11.58,2.475,14.054c0.319,2.473,0.558,4.896-0.865,6.7
					c-1.422,1.804-3.542,3.192-2.675,5.183c0.867,1.992,2.488,4.415,2.219,5.517c-0.268,1.101-0.838,2.437-2.835,2.564
					c-0.709,2.406-1.107,3.786-0.972,4.494c0.134,0.707-0.417,2.969-1.047,4.043c-0.629,1.074-2.137,3.227-2.32,3.98
					c-0.183,0.755,0.453,3.596-0.722,4.985c-1.293,1.526-2.962,1.949-4.642,0.895c-1.678-1.054-6.678-9.274-4.654-15.69
					c-2.917,4.352-5.735-2.933-5.582-6.335c0.361-8.029,6.4-11.809,7.277-7.687c0,0,6.271-10.74,11.854-19.164L179.627,471.138z"/>
				<path fill="#FFBA7B" d="M128.449,519.565c3.323-3.306,2.022-11.659,2.025-13.44c13.792-5.18,26.732-9.89,26.732-9.89l1.662,0.91
					c-0.463,1.263-0.789,2.726-0.862,4.383c-0.153,3.402,2.666,10.687,5.582,6.335c-2.024,6.416,2.976,14.637,4.654,15.69
					c0.697,0.437,1.388,0.607,2.055,0.562c-2.443,0.312-5.793,0.09-8.636,0.478c-7.17,0.977-8.606,10.959-8.161,14.844
					C131.285,527.759,130.075,520.453,128.449,519.565z"/>
				<path fill="#F59C5E" d="M157.955,526.212c1.126-3.808,1.875-8.421,1.685-10.711c-0.22-2.635-2.624-10.16-7.463-13.244
					c-1.532-0.975-3.122-1.812-4.581-2.498c5.742-2.116,9.61-3.524,9.61-3.524l1.662,0.91c-0.463,1.263-0.789,2.726-0.862,4.383
					c-0.153,3.402,2.666,10.687,5.582,6.335c-2.024,6.416,2.976,14.637,4.654,15.69c0.697,0.437,1.388,0.607,2.055,0.562
					c-2.443,0.312-5.793,0.09-8.636,0.478C160.193,524.795,158.976,525.386,157.955,526.212z"/>
				<path fill="#F59C5E" d="M130.474,506.125c8.543-3.208,16.753-6.234,21.769-8.074c0.82,0.528,1.61,1.134,2.352,1.849
					c-3.633,4.581-7.434,19.933-8.192,26.32l-3.373,6.9c-12.791-8.937-16.513-13.774-17.837-14.497
					C128.514,515.315,130.471,507.906,130.474,506.125z"/>
			</g>
			<g>
				<g>
					<path fill="#423EAF" d="M119.339,485.292c0.56,7.508,3.897,13.113,6.603,16.35c2.719,3.243,4.69,5.86,6.742,11.903
						c1.646-0.704,5.204,1.208,6.585,0.984c2.687-0.437,2.725-2.168,4.782-5.526c-0.62,1.453-0.768,2.907-0.966,3.966
						c0.562,0.475,1.751,0.616,2.539,0.529c4.299-4.938,9.525-12.717,12.512-13.479c0.988-6.968,6.32-10.032,7.149-6.175
						c-0.233,3.498-0.638,5.343,1.237,5.757c1.875,0.412,3.167-0.114,3.525-2.371c0.361-2.271,0.11-6.99,2.586-10.131
						c2.492-3.152,4.981-2.295,6.474-11.573c0.468-0.107,0.895-0.224,1.314-0.373c5.027-1.753,7.246-6.446,6.025-9.722
						c-1.831-4.957-13.542-7.175-19.74-9.318c-6.211-2.161-18.058-5.696-24.624-2.224c-6.552,3.476-12.246,5.671-16.02,13.598
						C122.291,475.412,118.765,477.782,119.339,485.292z"/>
				</g>
				<path fill="#34308A" d="M144.49,465.093c9.099-0.728,29.614,2.319,36.407,9.876c-0.56,0.222-1.151,0.417-1.786,0.558
					c-0.079,0.486-0.161,0.93-0.245,1.364c-4.972-6.679-25.818-10.852-34.142-10.824c-0.554,0.001-1.444-0.02-1.447-0.427
					C143.273,465.188,144.174,465.119,144.49,465.093z"/>
				<path fill="#34308A" d="M172.812,486.889c-2.655,3.352-2.404,8.071-2.765,10.341c-0.358,2.257-1.651,2.783-3.525,2.371
					c-1.875-0.415-1.47-2.26-1.237-5.757c-0.83-3.857-6.161-0.793-7.149,6.175c-2.987,0.762-8.213,8.541-12.512,13.479
					c-0.788,0.087-1.977-0.055-2.539-0.529c0.198-1.059,0.346-2.513,0.966-3.966c-2.057,3.358-2.095,5.09-4.782,5.526
					c-1.381,0.224-4.939-1.688-6.585-0.984c-2.052-6.043-4.023-8.66-6.742-11.903c-2.705-3.237-6.043-8.842-6.603-16.35
					c-0.226-2.955,0.189-5.111,0.998-7.126C134.066,494.365,158.069,492.999,172.812,486.889z"/>
			</g>
		</g>
		<g>
			<path fill="#7D79E8" d="M161.508,541.43c-2.059-4.118-4.929-8.769-9.578-14.054c-10.938-12.438-24.136-9.933-28.02-9.581
				c-1.343,1.881-1.806,2.841-3.267,4.165c-1.88,1.7-5.208,1.836-5.327,3.714c2.686,1.521,9.222,1.612,12.891,1.97
				C143.199,529.105,150.432,534.435,161.508,541.43z"/>
		</g>
		<path fill="#8A86F2" d="M173.146,547.785c-1.312-1.074-9.668-4.895-11.638-6.355c-11.076-6.995-18.309-12.324-33.301-13.786
			c-3.638-0.354-10.085-0.448-12.813-1.931c-2.802,1.031-8.234,3.096-12.252,3.989c-3.106,0.69-7.061,1.535-10.846,3.757
			c-6.992,6.315-8.508,14.712-9.318,20.222c-2.149,22.56,7.81,36.536,14.733,48.296c1.552,3.221,7.281,11.576,6.445,19.216
			c-0.835,7.64,0.358,20.649,0.119,25.304c-0.238,4.656-5.728,14.681-8.234,22.56c-2.508,7.877-4.775,21.724-1.553,25.543
			c3.223,3.82,16.95,9.431,25.901,12.174c8.953,2.745,23.156-1.552,31.034-7.401c7.877-5.846,16.174-15.065,20.471-20.081
			c5.281,6.088,11.1,5.999,15.218,7.161c1.522-1.969-0.537-17.099-1.431-21.843c-0.896-4.743-2.598-16.202-2.508-18.528
			c0.09-2.328,0.358-17.101,0.358-21.934c0-4.835,0.835-17.336,0.238-22.529L173.146,547.785z"/>
		<g>
			<path fill="#423EAF" d="M114.3,526.116c0.394-0.146,0.765-0.281,1.094-0.403c2.277,1.366,8.92,1.605,12.068,1.865
				c15.39,1.268,23.045,6.904,34.046,13.852c-10.444-5.521-18.757-10.354-33.749-11.816
				C124.41,529.286,116.828,528.283,114.3,526.116z"/>
		</g>
		<g>
			<path fill="#423EAF" d="M157.928,585.024c2.775,3.851,21.664,13.788,25.841,16.593c0.597,5.193-0.238,17.694-0.238,22.529
				c0,4.833-0.269,19.605-0.358,21.934c-0.09,2.326,1.611,13.785,2.508,18.528c0.894,4.744,2.953,19.874,1.431,21.843
				c-4.118-1.162-9.937-1.073-15.218-7.161c-4.296,5.016-12.593,14.235-20.471,20.081c-2.751,2.045-6.281,3.889-10.083,5.317
				c-1.329-17.359,21.135-63.842,22.257-81.586C164.791,604.243,159.539,591.829,157.928,585.024z"/>
		</g>
		<g>
			<g>
				<g>
					<path fill="#292585" d="M135.726,833.712c2.507-8.772,9.131-24.527,9.131-28.109c0-3.58,2.507-7.698,2.687-9.847
						c0.179-2.15-1.791-5.014-0.359-8.953c1.433-3.938-7.341-42.25-7.698-48.52c-0.358-6.266,0.357-11.457-3.044-15.935
						c-2.53-3.329-10.7-7.457-15.902-15.538c8.96,2.654,23.047-1.622,30.882-7.439c7.877-5.846,16.174-15.065,20.471-20.081
						c4.333,4.996,9.025,5.832,12.846,6.613c1.031,5.737,2.374,14.14,3.805,20.274c1.671,7.159,4.833,31.212,3.043,45.177
						c-1.792,13.964-5.192,38.313-6.266,45.118c-1.075,6.803-9.132,27.036-11.101,33.121c-1.97,6.088-12.354,39.391-13.07,42.791
						c-0.716,3.403,2.507,9.312,1.612,13.072c-0.896,3.758-5.013,9.488-2.865,11.815c1.554,1.682,4.136,3.833,5.922,4.896
						c0.871,0.518,1.195,1.619,0.737,2.524c-3.864,7.646-11.95,15.208-19.729,16.034c-6.599,0.702-12.978,1.624-18.531,0.262
						c-2.543-0.623-4.14-3.147-3.748-5.736c1.891-12.45,4.771-34.994,5.09-39.464C129.997,870.775,133.219,842.486,135.726,833.712z
						"/>
					<path fill="#1F1C63" d="M136.442,722.349c-2.53-3.329-10.7-7.457-15.902-15.538c8.96,2.654,23.047-1.622,30.882-7.439
						c7.736-5.741,15.866-14.727,20.225-19.797c-3.284,25.964-2.458,73.629-0.291,81.986c2.506,9.668,5.371,42.609-2.507,55.502
						c-7.877,12.892-13.965,45.119-17.188,54.427c-2.909,8.403-8.437,23.81,0.251,47.789c-1.678,0.753-3.389,1.268-5.085,1.448
						c-6.595,0.702-12.971,1.624-18.522,0.266c-2.548-0.625-4.147-3.155-3.754-5.75c1.89-12.45,4.769-34.986,5.088-39.454
						c0.358-5.013,3.581-33.302,6.087-42.076c2.507-8.772,9.131-24.527,9.131-28.109c0-3.58,2.507-7.698,2.687-9.847
						c0.179-2.15-1.791-5.014-0.359-8.953c1.433-3.938-7.341-42.25-7.698-48.52C139.128,732.018,139.844,726.826,136.442,722.349z"
						/>
				</g>
				<g>
					<path fill="#292585" d="M80.224,814.736c0.537-8.774,5.014-17.906,5.193-24.352c0.178-6.444,4.117-18.799,5.55-23.274
						c1.432-4.476,1.253-12.712,1.432-17.368c0.18-4.654,0.896-31.154,2.686-38.315c1.567-6.267,0.391-9.93,0.074-16.148
						c4.133,3.782,16.796,8.909,25.23,11.494c5.356,8.121,13.525,12.249,16.054,15.576c2.401,3.16,2.75,6.678,2.874,10.676
						c-2.966,12.037-7.41,27.131-8.544,30.444c-1.55,4.537-7.4,22.559-9.548,30.677c-2.148,8.116-7.757,30.794-8.116,35.448
						s-1.373,26.946-2.447,30.616c-1.075,3.671-2.013,4.534,0.716,6.269c3.76,2.386,5.64,7.549,5.909,14.084
						c0.269,6.532-3.67,6.951-7.341,13.039c-3.669,6.087-11.726,7.877-15.128,8.504s-7.878-0.896-9.758-4.476
						c0.18-2.06-1.193-13.728-1.909-17.664c-0.716-3.94-2.746-12.057-3.819-20.828C78.254,850.363,79.688,823.509,80.224,814.736z"
						/>
					<path fill="#1F1C63" d="M80.224,814.736c0.537-8.774,5.014-17.906,5.193-24.352c0.178-6.444,4.117-18.799,5.55-23.274
						c1.432-4.476,1.253-12.712,1.432-17.368c0.18-4.654,0.896-31.154,2.686-38.315c1.567-6.267,0.391-9.93,0.074-16.148
						c4.133,3.782,16.796,8.909,25.23,11.494c5.356,8.121,13.525,12.249,16.054,15.576c2.4,3.158,2.75,6.676,2.874,10.674
						c-0.396,1.604-0.815,3.255-1.251,4.933c-4.865,8.798-10.671,17.578-12.903,25.991c-3.103,11.696-17.188,38.91-21.484,47.267
						c-4.298,8.354-6.923,31.989-1.193,53.952c3.842,14.729,7.792,20.328,11.2,23.646c-1.155,1.241-2.461,2.669-3.741,4.791
						c-3.669,6.087-11.726,7.877-15.128,8.504s-7.878-0.896-9.758-4.476c0.18-2.06-1.193-13.728-1.909-17.664
						c-0.716-3.94-2.746-12.057-3.819-20.828C78.254,850.363,79.688,823.509,80.224,814.736z"/>
				</g>
			</g>
			<g>
				<g>
					<path fill="#8A86F2" d="M146.827,920.727c7.78-0.826,15.865-8.389,19.729-16.034c0.153-0.301,0.19-0.625,0.177-0.942
						c5.819,1.623,13.032,2.605,18.229,2.832c5.491,0.241,9.071,1.91,10.385,4.058c0.118,4.892-1.075,6.267-6.685,8.596
						c-11.938,4.953-44.03,4.383-55.88,2.393C137.181,921.879,141.942,921.246,146.827,920.727z"/>
					<path fill="#423EAF" d="M146.827,920.727c5.086-0.54,10.295-3.967,14.378-8.407c6.311,5.777,19.376,6.287,30.34,5.58
						c-0.8,0.431-1.746,0.862-2.883,1.336c-11.938,4.953-44.03,4.383-55.88,2.393C137.181,921.879,141.942,921.246,146.827,920.727z
						"/>
				</g>
				<g>
					<path fill="#7772E8" d="M127.403,920.676c5.112,2.369,46.963,4.489,61.259-1.44c5.61-2.329,6.803-3.704,6.685-8.596
						c1.552,1.493,1.73,5.731,1.671,7.162c-0.496,11.915-28.937,11.835-38.792,11.697c-17.307-0.238-24.23,0.359-28.587-2.328
						C127.029,925.563,126.682,923.242,127.403,920.676z"/>
					<path fill="#6763C9" d="M177.96,921.796c-1.528,2.019-2.188,4.553-2.179,7.095c-6.84,0.703-13.655,0.663-17.556,0.608
						c-17.307-0.238-24.23,0.359-28.587-2.328c-2.61-1.607-2.957-3.929-2.236-6.495C131.543,922.594,159.778,924.349,177.96,921.796
						z"/>
				</g>
			</g>
			<g>
				<g>
					<path fill="#8A86F2" d="M117.285,880.562c-0.093-2.268-0.394-4.352-0.886-6.228c5.433-0.737,10.328-0.955,13.262,1.167
						c-0.106,1.452-0.364,3.856-0.733,6.981c-3,2.489-6.725,5.211-17.016,8.336C114.889,887.177,117.505,885.93,117.285,880.562z"/>
					<path fill="#423EAF" d="M128.928,882.483c-3,2.489-6.725,5.211-17.016,8.336c2.278-2.79,4.34-4.179,5.087-7.079
						c3.784-0.205,8.538-2.437,12.322-4.703C129.211,880.045,129.08,881.198,128.928,882.483z"/>
				</g>
				<g>
					<path fill="#7772E8" d="M85.176,897.811c1.938,3.442,6.299,4.912,9.64,4.295c3.402-0.627,11.458-2.417,15.128-8.504
						c0.656-1.089,1.32-1.988,1.968-2.782c10.291-3.125,14.017-5.847,17.016-8.336c-0.267,2.267-0.592,4.908-0.953,7.751
						c-1.801,1.274-3.654,2.342-5.855,3.01c-2.955,0.896-8.415,2.147-11.28,5.282c-2.864,3.133-7.877,6.982-13.696,6.802
						c-5.819-0.179-10.116-0.536-12.354-3.761C84.438,900.281,84.776,898.925,85.176,897.811z"/>
					<path fill="#6763C9" d="M98.47,905.294c-0.438,0.032-0.878,0.05-1.326,0.034c-5.819-0.179-10.116-0.536-12.354-3.761
						c-0.351-1.286-0.013-2.643,0.386-3.757c1.938,3.442,6.299,4.912,9.64,4.295c1.048-0.191,2.539-0.497,4.206-1.004
						C98.482,902.423,98.297,903.879,98.47,905.294z"/>
				</g>
			</g>
		</g>
		<g>
			<g>
				<g>
					<path fill="#FFBA7B" d="M182.726,551.479c2.697-0.53,8.68-1.333,12.033-0.676c3.652,0.717,9.23,2.254,12.974,4.069
						c2.26,1.097,7.644,5.939,7.434,6.833c-1.164,0.983-3.645,0.352-4.896-0.593s-5.864-3.596-7.532-3.822
						c-1.666-0.227-6.726-0.512-6.726-0.512c1.719,1.771,3.149,5.893,2.944,6.951c-0.366,1.886-3.506,4.521-6.606,5.275
						c-1.004,0.242-1.238-2.301-0.45-3.151c-0.891-0.448-7.038-1.74-7.038-1.74l-5.88-11.306
						C178.982,552.808,180.029,552.009,182.726,551.479z"/>
					<path fill="#F59C5E" d="M187.96,556.104c0.656,1.371,4.937,3.185,5.842,3.911c1.541,1.236,3.334,3.213,2.438,4.865
						c-0.668,1.232-2.826,1.046-4.14,0.455c-1.314-0.591-6.695-3.146-6.695-3.146L187.96,556.104z"/>
					<path fill="#FFBA7B" d="M187.723,556.127c0.609,1.293,5.065,4.35,6.071,4.737c1.004,0.386,3.102,2.301,1.956,3.846
						c-0.78,1.053-2.969,0.703-4.183,0.146c-1.216-0.563-6.192-2.985-6.192-2.985L187.723,556.127z"/>
				</g>
				<path fill="#F59C5E" d="M193.793,560.864c0.143,0.056,0.311,0.148,0.487,0.26c-0.941-1.757-1.492-3.434-2.351-4.662
					c-0.85-0.117-2.651-0.292-4.207-0.335C188.332,557.42,192.788,560.477,193.793,560.864z"/>
			</g>
			<g>
				<path fill="#F59C5E" d="M223.481,595.832c-2.358,0-6.295-4.093-7.554-5.272c7.948-13.693,9.915-16.84,12.198-16.604
					c2.28,0.235,7.552,9.678,6.845,13.375C234.262,591.031,225.37,595.832,223.481,595.832z"/>
				<path fill="#FFBA7B" d="M211.758,605.352c3.225-4.09,10.151-9.757,12.117-11.488c1.967-1.729,5.667-7.241,7.003-7.712
					c1.338-0.473,5.509-1.18,6.138,0.865c0.63,2.047,0.55,5.588-2.123,11.96c-2.676,6.375-4.093,11.646-6.611,15.976
					c-2.519,4.327-7.161,9.836-9.443,13.534C218.209,618.729,215.849,608.972,211.758,605.352z"/>
				<path fill="#F59C5E" d="M223.875,593.863c-1.966,1.731-8.892,7.398-12.117,11.488c0.683,0.604,1.312,1.393,1.898,2.311
					c2.953-4.681,8.549-10.864,10.21-12.831c0.648-0.768,1.46-2.099,2.292-3.504C225.312,592.363,224.503,593.312,223.875,593.863z"
					/>
				<path fill="#FFBA7B" d="M207.351,598.427c4.642,3.383,9.993,10.386,12.196,13.22c2.204,2.835,2.217,10.944,0.787,14.006
					c-1.101,2.363-2.438,5.983-7.003,5.589c-4.563-0.394-18.019-8.814-23.842-15.737
					C193.344,610.862,203.18,601.495,207.351,598.427z"/>
				<g>
					<path fill="#F59C5E" d="M210.357,582.789c-1.37-0.367-2.868-1.084-2.595-2.193c0.273-1.108,1.507-1.813,4.48-0.465
						C211.896,580.821,210.357,582.789,210.357,582.789z"/>
					<path fill="#F59C5E" d="M217.085,574.621c-1.227-0.271-4.276-1.965-4.737-3.926c-0.462-1.965,0.126-3.195,1.962-2.528
						c1.837,0.665,3.909,2.491,4.406,2.94C217.918,572.843,217.085,574.621,217.085,574.621z"/>
					<path fill="#F59C5E" d="M214.847,578.086c-1.292-0.474-3.836-2.472-4.821-4.446c-0.887-1.775,0.522-3.444,2.418-2.456
						c1.895,0.989,3.875,3.274,4.349,3.834C215.673,576.782,214.847,578.086,214.847,578.086z"/>
					<path fill="#F59C5E" d="M213.846,581.493c-1.338-0.316-4.102-2-5.313-3.842c-1.09-1.658,0.111-3.484,2.109-2.725
						c2,0.757,4.236,2.79,4.773,3.29C214.511,580.103,213.846,581.493,213.846,581.493z"/>
				</g>
				<g>
					<path fill="#423EAF" d="M235.495,560.759l-1.119-0.771l-0.144,0.161l-8.045-3.282c-1.169-0.477-2.512,0.019-3.092,1.139
						l-15.89,30.741c-0.36,0.699-0.321,1.469-0.018,2.127l-0.281,0.32l1.154,0.736c0,0,0.208,0.119,0.323,0.169l9.088,4.04
						c1.19,0.529,2.584,0.032,3.172-1.127l15.752-31.128C236.971,562.743,236.531,561.421,235.495,560.759z"/>
					<path fill="#5E58E8" d="M221.941,557.272l-15.89,30.739c-0.646,1.249-0.108,2.784,1.177,3.353l9.088,4.041
						c1.189,0.528,2.584,0.03,3.171-1.13l15.752-31.129c0.645-1.272,0.065-2.824-1.257-3.364l-8.95-3.649
						C223.863,555.653,222.521,556.147,221.941,557.272z"/>
					<polygon fill="#C6D4F8" points="222.72,557.471 206.54,588.773 218.675,594.166 234.759,562.383 					"/>
				</g>
				<path fill="#FFBA7B" d="M228.911,588.905c-1.615-2.602-2.282-7.396-0.786-10.387c1.494-2.989,3.304-5.586,4.877-7.554
					c1.18-4.407,3.305-9.365,5.43-9.521c2.124-0.158,2.44,1.418,1.496,4.327c-0.945,2.914-2.755,9.916-2.833,12.748
					c-0.08,2.833,0.502,7.874,0.156,9.601C236.624,591.267,231.745,593.471,228.911,588.905z"/>
			</g>
			<path fill="#8A86F2" d="M184.291,612.565c-0.697,0.451,4.135,3.175,5.551,3.646c6.846-3.659,16.59-12.013,18.793-18.255
				c-0.892-1.836-2.033-4.159-2.715-4.738C204.031,596.68,192.187,607.45,184.291,612.565z"/>
			<path fill="#8A86F2" d="M179.573,552.474c-3.708-3.319-9.916-8.894-19.279-4.25c-9.213,4.569-15.659,21.403-9.836,32.421
				c3.407,6.445,14.164,13.849,18.256,16.367c4.091,2.518,13.063,16.84,18.414,17.311c4.091-2.832,18.885-13.061,19.515-20.144
				c-3.62-8.656-9.758-14.007-12.748-18.572C190.904,571.044,189.357,561.234,179.573,552.474z"/>
		</g>
	</g>
	<g>
		<path opacity="0.15" fill="#7974F2" d="M828.351,654.734l55.172,32.034c1.376,0.794,3.608,0.794,4.985,0l8.459-4.884
			c1.375-0.794,1.375-2.084,0-2.877l-55.172-32.035c-1.376-0.794-3.61-0.794-4.987,0l-8.457,4.882
			C826.974,652.65,826.974,653.938,828.351,654.734z"/>
		<g>
			<g>
				<polygon fill="#FEF1C1" points="854.665,215.969 851.851,220.936 841.521,216.705 830.608,212.239 836.792,208.653 				"/>
				<polygon fill="#FFA81C" points="886.527,279.087 880.347,282.672 878.565,269.655 876.715,256.156 882.926,252.752 				"/>
				<polygon fill="#FFA81C" points="877.032,228.325 870.852,231.91 862.907,208.761 861.346,204.205 867.529,200.619 				"/>
				<path fill="#FEF1C1" d="M898.265,244.147l-6.181,3.585c-0.154-0.118-21.232-15.822-21.232-15.822l6.181-3.585L898.265,244.147z"
					/>
				<path fill="#FED645" d="M882.926,252.752l-6.211,3.404l1.851,13.499l1.781,13.017l-19.001-22.494l-18.998,0.562l3.631-22.331
					l-15.37-26.17l10.913,4.466l10.329,4.231l2.814-4.966l6.681-11.764l1.562,4.556l7.937,23.148l21.086,15.704
					C892.084,247.732,882.926,252.752,882.926,252.752z"/>
			</g>
			<g>
				<polygon fill="#FEF1C1" points="854.665,310.184 851.851,315.15 841.521,310.92 830.608,306.453 836.792,302.868 				"/>
				<polygon fill="#FFA81C" points="886.527,373.302 880.347,376.887 878.565,363.871 876.715,350.372 882.926,346.968 				"/>
				<polygon fill="#FFA81C" points="877.032,322.54 870.852,326.125 862.907,302.977 861.346,298.42 867.529,294.834 				"/>
				<path fill="#FEF1C1" d="M898.265,338.362l-6.181,3.585c-0.154-0.118-21.232-15.823-21.232-15.823l6.181-3.585L898.265,338.362z"
					/>
				<path fill="#FED645" d="M882.926,346.968l-6.211,3.404l1.851,13.499l1.781,13.017l-19.001-22.495l-18.998,0.564l3.631-22.333
					l-15.37-26.171l10.913,4.467l10.329,4.23l2.814-4.966l6.681-11.764l1.562,4.557l7.937,23.148l21.086,15.705
					C892.084,341.947,882.926,346.968,882.926,346.968z"/>
			</g>
			<g>
				<polygon fill="#FEF1C1" points="854.665,404.399 851.851,409.364 841.521,405.135 830.608,400.668 836.792,397.083 				"/>
				<polygon fill="#FFA81C" points="886.527,467.517 880.347,471.103 878.565,458.085 876.715,444.586 882.926,441.183 				"/>
				<polygon fill="#FFA81C" points="877.032,416.754 870.852,420.339 862.907,397.192 861.346,392.634 867.529,389.049 				"/>
				<path fill="#FEF1C1" d="M898.265,432.577l-6.181,3.585c-0.154-0.118-21.232-15.823-21.232-15.823l6.181-3.585L898.265,432.577z"
					/>
				<path fill="#FED645" d="M882.926,441.183l-6.211,3.403l1.851,13.5l1.781,13.017l-19.001-22.494l-18.998,0.562l3.631-22.331
					l-15.37-26.171l10.913,4.466l10.329,4.229l2.814-4.965l6.681-11.766l1.562,4.558l7.937,23.147l21.086,15.705
					C892.084,436.162,882.926,441.183,882.926,441.183z"/>
			</g>
			<g>
				<polygon fill="#FEF1C1" points="854.665,498.614 851.851,503.578 841.521,499.349 830.608,494.883 836.792,491.298 				"/>
				<polygon fill="#FFA81C" points="886.527,561.731 880.347,565.317 878.565,552.299 876.715,538.802 882.926,535.396 				"/>
				<polygon fill="#FFA81C" points="877.032,510.97 870.852,514.555 862.907,491.406 861.346,486.848 867.529,483.264 				"/>
				<path fill="#FEF1C1" d="M898.265,526.793l-6.181,3.584c-0.154-0.118-21.232-15.822-21.232-15.822l6.181-3.585L898.265,526.793z"
					/>
				<path fill="#FED645" d="M882.926,535.396l-6.211,3.405l1.851,13.497l1.781,13.019l-19.001-22.495l-18.998,0.564l3.631-22.333
					l-15.37-26.171l10.913,4.466l10.329,4.229l2.814-4.964l6.681-11.766l1.562,4.558l7.937,23.149l21.086,15.704
					C892.084,530.377,882.926,535.396,882.926,535.396z"/>
			</g>
			<g>
				<polygon fill="#FEF1C1" points="854.665,592.831 851.851,597.795 841.521,593.565 830.608,589.098 836.792,585.512 				"/>
				<polygon fill="#FFA81C" points="886.527,655.946 880.347,659.532 878.565,646.516 876.715,633.017 882.926,629.611 				"/>
				<polygon fill="#FFA81C" points="877.032,605.185 870.852,608.77 862.907,585.621 861.346,581.065 867.529,577.479 				"/>
				<path fill="#FEF1C1" d="M898.265,621.008l-6.181,3.586c-0.154-0.121-21.232-15.824-21.232-15.824l6.181-3.585L898.265,621.008z"
					/>
				<path fill="#FED645" d="M882.926,629.611l-6.211,3.405l1.851,13.499l1.781,13.017l-19.001-22.495l-18.998,0.564l3.631-22.333
					l-15.37-26.171l10.913,4.468l10.329,4.229l2.814-4.964l6.681-11.766l1.562,4.556l7.937,23.148l21.086,15.703
					C892.084,624.594,882.926,629.611,882.926,629.611z"/>
			</g>
		</g>
	</g>
	<g>
		<path opacity="0.15" fill="#7974F2" d="M538.681,489.037l219.509,126.737c3.938,2.273,10.325,2.273,14.265,0l24.196-13.971
			c3.941-2.274,3.941-5.962,0-8.236L577.146,466.829c-3.939-2.274-10.326-2.274-14.266,0L538.681,480.8
			C534.741,483.074,534.741,486.762,538.681,489.037z"/>
		<g>
			<g>
				<polygon fill="#423EAF" points="772.546,196.961 772.546,590.696 790.016,580.565 790.016,186.831 				"/>
				<path fill="#4F4AD1" d="M790.016,580.565c-0.115,7.213-2.633,12.362-6.866,14.65l-0.803,0.459l-16.669,9.673
					c4.235-2.291,6.754-7.44,6.868-14.651L790.016,580.565z"/>
				<path fill="#423EAF" d="M591.088,43.758c-6.639-3.891-12.704-4.234-17.054-1.602c0-0.114-17.472,10.13-17.472,10.13
					c4.35-1.945,9.958-1.373,16.138,2.175l3.436,1.946l8.354,4.807L748.738,156.1l17.47-10.016L591.088,43.758z"/>
				<path fill="#4F4AD1" d="M766.208,146.084l-17.47,10.016c13.163,7.554,23.808,25.867,23.808,40.861l17.47-10.13
					C790.016,171.951,779.257,153.639,766.208,146.084z"/>
				<g>
					<path fill="#8A86F2" d="M750.379,146.461c-3.145,1.817-8.263,1.813-11.402,0l-41.792-24.129c-3.141-1.814-3.145-4.767,0-6.584
						c3.146-1.815,8.264-1.813,11.404,0l41.79,24.13C753.521,141.691,753.526,144.645,750.379,146.461z M698.676,116.609
						c-2.323,1.342-2.323,3.521,0,4.863l41.792,24.128c2.322,1.341,6.098,1.341,8.421,0c2.322-1.341,2.322-3.521,0-4.861
						l-41.79-24.13C704.773,115.269,700.998,115.269,698.676,116.609z"/>
					<g>
						<path fill="#2B2873" d="M701.483,120.826c-1.24-0.717-1.24-1.879,0-2.596s3.253-0.717,4.498,0
							c1.239,0.717,1.239,1.879,0,2.596C704.736,121.543,702.724,121.543,701.483,120.826z"/>
						<path fill="#8A86F2" d="M701.483,119.577c1.24-0.716,3.253-0.716,4.498,0c0.316,0.185,0.551,0.397,0.705,0.625
							c0.45-0.66,0.217-1.439-0.705-1.972c-1.245-0.717-3.258-0.717-4.498,0c-0.925,0.533-1.159,1.312-0.707,1.972
							C700.932,119.975,701.167,119.762,701.483,119.577z"/>
					</g>
				</g>
				<g>
					<path fill="#807ED6" d="M779.902,276.932c0-1.487,1.041-3.294,2.329-4.038l3.204-1.85c0.645-0.371,1.226-0.407,1.649-0.163
						l-3.607-2.082c-0.42-0.244-1.005-0.209-1.648,0.164l-3.204,1.851c-1.288,0.742-2.332,2.55-2.33,4.037v30.56
						c0,0.744,0.261,1.267,0.681,1.51l3.608,2.083c-0.422-0.244-0.682-0.767-0.682-1.509V276.932z"/>
					<path fill="#6460D6" d="M785.436,306.99l-3.202,1.85c-1.288,0.743-2.331,0.14-2.331-1.346v-30.562
						c0-1.487,1.041-3.294,2.329-4.038l3.204-1.85c1.289-0.743,2.331-0.141,2.331,1.346v30.561
						C787.767,304.438,786.725,306.246,785.436,306.99z"/>
				</g>
				<g>
					<path fill="#8A86F2" d="M572.662,54.489c186.13,107.395,161.088,92.938,172.598,99.604c4.157,2.444,12.767,6.728,20.373,19.862
						c4.233,7.294,6.866,15.483,6.866,22.924l-0.007,393.72c-0.113,14.632-10.758,20.54-23.805,13.028L572.656,502.003
						c-6.641-3.888-12.594-10.302-16.94-17.958c-4.235-7.063-6.754-15.121-6.867-22.463l0.006-393.721
						C548.854,52.866,559.499,46.845,572.662,54.489z"/>
					<g>
						<path fill="#DAE2F8" d="M572.678,497.662c-10.858-6.369-19.433-21.24-19.621-33.291l0.006-394.53
							c0-12.303,8.759-17.254,19.529-11.037l174.062,100.451c13.94,8.049,21.636,23.053,21.636,34.746l-0.005,394.618
							c-0.093,12.022-8.89,16.818-19.609,10.649L572.678,497.662z"/>
						<path fill="#BCBAF5" d="M704.096,467.531v105.999l44.579,25.738c10.72,6.169,19.517,1.373,19.609-10.649v-84.026
							L704.096,467.531z M594.065,193.979l21.434,12.374V86.665l-21.434-12.372V193.979z"/>
						<path fill="#BCBAF5" d="M650.338,357.269l12.3,7.1V350.34l-33.73-19.474v30.904l21.431,12.374V357.269z M694.372,368.663
							l-12.646-7.302v53.472l12.646,7.303V368.663z M673.235,413.185v18.976l-16.863-9.737v11.929l38.294,22.11v-30.903
							L673.235,413.185z M594.065,440.129l9.193,5.308v65.401l12.24,7.065v-96.305l-21.434-12.374V440.129z M642.61,374.562
							l-13.703-7.911v30.904l25.121,14.503v-13.215l-11.418-6.592V374.562z M628.907,418.497l13.703,7.91v-16.875l-13.703-7.911
							V418.497z"/>
						<path fill="#BCBAF5" d="M628.907,315.414l21.431,12.375v-61.81l23.541,13.591v61.808l21.432,12.375v-84.987l-66.403-38.338
							V315.414z M707.433,140.692v119.28l21.432,12.375V153.066L707.433,140.692z M628.907,526.051l21.431,12.375v-97.185
							l-21.431-12.375V526.051z M594.065,394.586l21.434,12.373V265.993l-21.434-12.374V394.586z"/>
						<path fill="#C4D2F8" d="M768.287,351.427l0.002-5.693l-33.452-19.313V284.4l33.452,19.313v-5.692l-33.452-19.313V152.436
							l-4.921-2.839v126.271l-24.24-13.995V135.606l-8.433-4.866V254.97l-34.079-19.675V111.073l-4.92-2.839v124.221l-31.271-18.054
							V90.188l-8.431-4.866v126.244l-29.863-17.242V68.088l-4.919-2.839v126.236l-30.7-17.724v5.692l30.7,17.725v42.02l-30.7-17.725
							v5.693l30.7,17.725v149.912l-30.702-17.726v5.693l30.702,17.726v103.565l4.919,2.838V403.336l29.863,17.242v103.561
							l8.431,4.869V425.445l70.27,40.57v103.559l8.433,4.866V470.883l62.608,36.148v-5.694l-33.447-19.312V332.113L768.287,351.427z
							 M618.543,414.884l-29.863-17.241V247.73l29.863,17.242V414.884z M618.543,259.279l-29.863-17.241v-42.02l29.863,17.24
							V259.279z M697.243,460.322l-70.27-40.569v-92.576l70.27,40.568V460.322z M697.243,357.986l-70.27-40.569V224.16l70.27,40.569
							V357.986z M729.916,479.186l-24.24-13.997V315.278l24.24,13.997V479.186z M729.916,323.581l-24.24-13.997v-42.02l24.24,13.998
							V323.581z"/>
						<polygon fill="#DAD8FF" points="768.284,549.953 768.284,548.328 733.08,528.003 733.08,483.858 731.675,483.046 
							731.675,525.487 704.708,467.808 703.579,468.126 731.675,528.216 731.675,589.451 733.08,590.264 733.08,564.644 
							768.284,584.97 768.284,583.344 733.08,563.017 733.08,529.63 						"/>
						<path fill="#FFFFFF" d="M768.287,350.207l0.002-3.253l-34.507-19.921v-44.459l34.507,19.922v-3.254l-34.507-19.922V151.828
							l-2.812-1.623v127.491l-26.699-15.416V134.796l-5.622-3.244v125.857l-36.539-21.096V110.465l-2.81-1.622v125.846
							l-33.731-19.473V89.377l-5.62-3.244v127.463l-32.321-18.661V67.479l-2.811-1.622v127.456l-31.756-18.333v3.252l31.756,18.333
							v44.46l-31.756-18.333v3.253l31.756,18.333v152.352l-31.758-18.335v3.253l31.758,18.336v104.784l2.811,1.62V401.507
							l32.321,18.662v104.782l5.62,3.245V423.414l73.08,42.192v104.78l5.622,3.244v-104.78l64.014,36.959v-3.253l-34.502-19.921
							V330.286L768.287,350.207z M619.948,416.916l-32.321-18.662V245.902l32.321,18.661V416.916z M619.948,261.311l-32.321-18.663
							v-44.459l32.321,18.662V261.311z M698.648,462.354l-73.08-42.193v-95.422l73.08,42.192V462.354z M698.648,360.424
							l-73.08-42.192v-96.51l73.08,42.192V360.424z M730.97,481.014L704.271,465.6V313.245l26.699,15.417V481.014z M730.97,325.41
							l-26.699-15.417v-44.46l26.699,15.417V325.41z"/>
					</g>
				</g>
			</g>
			<g>
				<path opacity="0.15" fill="#7974F2" d="M585.123,275.105c-0.002,50.622,35.538,112.176,79.379,137.487
					c43.837,25.31,79.377,4.792,79.38-45.83c0-50.622-35.541-112.176-79.378-137.487
					C620.663,203.965,585.123,224.483,585.123,275.105z"/>
				<g>
					<g>
						<g>
							<path fill="#FFBA7B" d="M672.186,390.617c-17.022,11.962-26.864,15.682-36.145,21.341
								c-1.037,14.854-7.392,40.852-18.24,49.619c-10.851,8.767-23.678,15.801-29.323,22.667s-16.007,19.024-31.18,21.781
								c-15.173,2.758-40.753,2.829-51.344,5.867c-4.9,3.514-13.076,2.311-14.209-13.097c-8.623,4.7-22.571,11.462-33.918,16.768
								s-43.667,16.655-47.993,18.144c-4.328,1.488-10.211,4.743-24.936,8.56c-30.022,7.772-45.58,8.753-49.406-5.228
								c-14.95,4.311-26.452,5.531-37.438,7.326c-10.986,1.796-22.367,2.352-26.31-5.517c-3.942-7.864-1.977-10.744-1.889-14.648
								c-9.352,2.642-21.338,3.498-26.823-3.064c-5.484-6.563-3.769-18.704,2.25-24.976c6.018-6.271,21.845-12.005,30.712-15.009
								c-5.783-1.115-11.873-7.377-8.489-15.431c3.383-8.055,15.209-19.054,36.546-24.065c7.592-5.85,19.756-11.49,26.353-13.736
								c7.41-8.633,28.921-21.456,34.062-26.303c5.142-4.848,38.967-25.279,48.315-30.947c9.349-5.668,44.076-33.366,62.476-39.253
								c18.4-5.889,47.608-8.789,57.839-9.827c10.23-1.038,21.427-4.378,30.199-11.045c8.772-6.667,16.792-11.062,20.451-14.183
								C615.536,300.873,666.972,343.289,672.186,390.617z"/>
							<path fill="#FFCA9B" d="M504.437,507.352c10.592-3.036,36.17-3.108,51.345-5.864c15.173-2.759,25.535-14.916,31.18-21.782
								c5.643-6.867,18.473-13.9,29.322-22.667c10.85-8.769,17.205-34.765,18.241-49.618c8.677-5.292,21.502-10.679,37.055-21.139
								c0.243,1.441,0.448,2.885,0.606,4.336c-17.022,11.961-26.864,15.682-36.145,21.341c-1.037,14.854-7.392,40.852-18.24,49.619
								c-10.851,8.768-23.678,15.801-29.323,22.667s-16.007,19.024-31.18,21.781c-15.175,2.758-40.753,2.829-51.344,5.867
								c-4.317,3.096-11.173,2.524-13.519-8.188C495.48,509.963,500.839,509.932,504.437,507.352z M267.505,465.72
								c0.187-0.446,0.403-0.9,0.642-1.361c-0.888,7.199,4.451,14.581,9.47,15.549c-0.891,0.302-1.886,0.597-2.957,0.892
								C269.331,479.059,264.381,473.155,267.505,465.72z M383.38,537.726c14.726-3.813,20.608-7.071,24.937-8.558
								c4.327-1.488,36.646-12.837,47.993-18.143c11.347-5.307,25.295-12.07,33.918-16.769c0.137,1.863,0.38,3.515,0.705,4.978
								c-8.668,4.675-22.103,11.185-33.106,16.329c-11.347,5.306-43.667,16.655-47.993,18.144
								c-4.328,1.488-10.211,4.743-24.936,8.56c-28.226,7.308-43.665,8.607-48.59-2.88
								C343.545,546.053,359.265,543.97,383.38,537.726z M239.727,510.369c0.632,2.16,1.637,4.165,3.029,5.832
								c5.484,6.562,17.048,6.778,26.398,4.134c-0.368,1.523-0.907,2.823-1.156,4.355c-9.027,2.23-19.838,2.582-24.966-3.555
								C240.651,518.284,239.631,514.384,239.727,510.369z M296.536,539.827c10.987-1.797,21.026-2.662,35.977-6.973
								c0.468,1.71,1.136,3.189,2,4.459c-14.471,4.083-25.716,5.298-36.459,7.052c-10.986,1.796-22.367,2.352-26.31-5.517
								c-1.18-2.354-1.823-4.255-2.153-5.875c0.192,0.429,0.402,0.872,0.636,1.337C274.167,542.177,285.549,541.622,296.536,539.827
								z"/>
							<path fill="#FFDCB9" d="M535.479,490.131c1.339,5.627-1.283,13.998-12.093,18.172c-8.958,3.46-14.937,5.982-18.989,5.458
								c-0.675-0.087-0.965-0.881-0.555-1.417c2.786-3.631,4.191-9.576,3.698-21.009c-0.092-2.148,0.57-5.055,4.628-6.936
								C516.223,482.52,532.197,476.332,535.479,490.131z"/>
							<path fill="#F49A50" d="M491.745,498.796c-1.051,0.573-2.186,1.178-3.382,1.806c2.419-28.81,29.449-49.181,56.538-54.956
								c1.242-5.419,9.097-14.724,14.861-18.256c-5.657,5.787-11.884,15.116-13.12,20.05
								C520.226,452.965,493.73,472.082,491.745,498.796z"/>
							<path fill="#F49A50" d="M331.587,538.113c-8.722-29.208,40.46-45.868,50.544-45.188c5.932-8.423,28.541-20.86,41.217-24.287
								c6.281-7.556,24.828-16.705,33.789-16.551c-8.565,2.095-26.386,12.009-32.494,19.159
								c-12.288,3.28-34.889,16.042-40.663,24.009c-9.831-0.609-57.684,13.914-48.488,41.784
								C334.161,537.426,332.868,537.773,331.587,538.113z"/>
							<path fill="#F49A50" d="M368.14,473.818c4.686-4.275,33.563-20.25,41.633-22.274c-5.87,2.789-35.621,19.968-40.338,25.259
								c-13.619,3.038-30.566,8.502-55.925,17.122c-11.627,3.805-38.464,12.231-43.654,30.276c-1.217,0.345-2.479,0.653-3.764,0.925
								c5.51-19.892,33.016-29.621,45.581-32.957C334.922,483.463,354.237,476.941,368.14,473.818z"/>
							<path fill="#F49A50" d="M335.061,455.793c11.464-9,40.177-25.128,46.925-27.071c-6.565,3.971-32.675,19.401-44.141,28.401
								c-9.652,3.55-34.949,14.105-46.991,20.593c-5.69,1.035-10.654,2.613-14.86,3.434c-1.07-0.207-2.152-0.59-3.181-1.128
								c4.816-1.565,11.584-3.121,16.918-4.09C301.774,469.444,325.406,459.343,335.061,455.793z"/>
							<g>
								<path fill="#F49A50" d="M477.127,347.436c0,0-0.094,0.453-0.271,1.303c-2.273,11.509,0.082,24.906,4.575,35.728
									c9.696,26.264,29.413,24.975,62.405,49.971c-23.72-22.26-43.053-24.284-54.298-41.788
									c-7.813-12.091-13.97-29.736-12.545-43.888C477.08,347.897,477.127,347.436,477.127,347.436z"/>
								<path fill="#F49A50" d="M424.233,368.589c27.143,16.241,37.6,39.292,34.204,69.472
									C467.965,405.553,450.773,379.565,424.233,368.589z"/>
								<path fill="#F49A50" d="M509.875,412.792c-1.405-0.777-2.857-2.337-4.321-2.982c-14.542-6.412-31.707-5.542-47.053-0.557
									l0.478,1.674C476.861,407.356,492.485,406.977,509.875,412.792z"/>
								<path fill="#F49A50" d="M538.756,344.923c-16.016,16.848-29.497,55.313-10.092,77.988c0.489,0.607,0.897,0.963,2.687,2.702
									l0.456-0.453C510.677,399.204,526.909,361.182,538.756,344.923z"/>
							</g>
							<path opacity="0.2" d="M578.435,300.147c37.525,13.088,70.454,71.297,61.918,109.333c-1.392,0.782-2.76,1.56-4.103,2.377
								c0.499-2.991,0.766-6.25,0.766-9.702c0-33.054-23.197-73.24-51.805-89.767c-5.482-3.184-10.813-5.253-15.76-6.251
								C572.802,303.821,575.868,301.849,578.435,300.147z"/>
						</g>
						<g>
							<g>
								<path fill="#423EAF" d="M546.521,278.758c11.618-5.751,27.188-4.371,44.25,5.484c13.345,7.708,25.731,19.518,36.048,33.399
									c37.469,50.588,39.073,114.415,2.682,124.624c0,0-0.787,2.133-0.881,2.417c-1.227,3.118-2.88,6.511-5.021,10.084
									l86.563-49.943c13.458-6.481,21.894-22.088,21.894-44.865c0-43.101-30.216-95.52-67.564-117.032
									c-19.328-11.158-36.774-11.849-49.084-3.949L546.521,278.758z"/>
								<path fill="#8A86F2" d="M626.818,317.642c37.469,50.588,39.073,114.415,2.682,124.624c0.687-1.843,1.388-4.021,1.765-5.369
									c42.747-18.013,17.536-115.399-40.494-148.974c-33.392-19.285-61.179-4.57-61.889,34.128
									c-0.997,0.077-2.069,0.192-3.221,0.345C525.661,260.814,584.301,260.427,626.818,317.642z"/>
							</g>
							<path fill="#2B2873" d="M528.882,322.051c0.115-0.014,4.707-0.519,4.794-0.537c2.224-11.503,7.706-19.748,15.414-24.157
								c0,0-0.948,0.567,27.341-15.76C549.78,273.506,529.496,289.074,528.882,322.051z"/>
						</g>
						<g>
							<path fill="#CDCDE6" d="M549.588,297.088c8.551-4.639,19.71-4.639,32.173,0.805c35.901,15.476,67.611,69.468,62.389,109.516
								c0.192-0.077,0.384-0.192,0.538-0.269c-0.193,0.115-0.386,0.192-0.538,0.307c-1.418,10.66-5.484,18.827-11.39,24.119
								c-0.459,1.764-0.959,3.566-1.456,5.33c34.989-14.833,24.279-82.521-12.117-124.93c-11.093-12.898-26.732-25.562-42.756-30.37
								L549.588,297.088z"/>
							<path fill="#B0B0D6" d="M634.562,423.207c2.646-3.72,4.602-8.321,5.79-13.688c-0.683,0.34-3.542,1.97-4.293,2.453
								C635.83,415.269,635.33,419.104,634.562,423.207z"/>
							<path fill="#B0B0D6" d="M537.355,321.016c9.517-1.588,18.269-4.729,25.922-10.468c5.715-4.334,11.12-7.746,15.184-10.391
								C558.378,292.978,542.385,301.472,537.355,321.016z"/>
							<path fill="#DBE5FF" d="M533.676,321.514c1.227-0.115,2.455-0.306,3.68-0.498c5.029-19.547,21.024-28.037,41.105-20.859
								c37.499,13.079,70.428,71.288,61.892,109.324c0,0-1.335,7.463-5.79,13.727c-0.461,2.723-1.074,5.523-1.803,8.36
								c8.971-8.041,11.964-20.916,11.964-33.093c0-38.72-29.586-86.192-62.963-100.581
								C557.563,287.32,538.356,297.297,533.676,321.514z"/>
						</g>
					</g>
				</g>
				<g>
					<path opacity="0.15" fill="#7974F2" d="M301.971,452.35c-0.043-2.719,1.823-4.628,4.144-6.018l178.897-104.188
						c5.883-3.396,15.519-3.359,21.476,0.082c0,0,85.115,49.111,89.502,51.642c2.971,1.715,6.063,3.508,6.063,3.508l0.775,0.45
						c1.973,1.138,5.642,3.257,5.657,6.965c0.017,2.31-1.517,4.473-4.322,6.092c0,0-131.233,80.71-177.792,102.162
						c-10.479,4.829-45.425,9.438-96.776-21.505C302.481,475.199,301.958,452.964,301.971,452.35z"/>
					<g>
						<path fill="#FED645" d="M589.123,327.402c-1.796-1.065-9.371-6.958-12.402-9.652c-3.03-2.694-7.032-6.155-9.635-8.268
							c-2.769,0.749-30.08,13.169-42.727,20.429c-12.645,7.257-26.339,16.686-35.767,24.917
							c-5.084,4.438-10.734,10.444-16.046,16.794c-3.153,3.771-6.188,7.664-8.917,11.424c-0.131,0.184-0.264,0.365-0.396,0.549
							c-0.205,0.284-0.406,0.566-0.606,0.846c-0.12,0.168-0.238,0.335-0.354,0.504c-0.708,0.998-1.387,1.986-2.041,2.956
							c-7.556,11.225-17.359,27.762-21.775,33.448c-4.414,5.687-11.596,9.803-19.678,15.265
							c-8.081,5.46-23.423,13.544-27.015,15.489c-3.591,1.946-17.584,10.749-18.93,12.208c0.925-0.17,2.975-0.059,4.266,0.139
							c2.218-2.188,5.461-3.619,8.082-4.125c2.469-0.476,8.53-0.391,11.759-0.419c3.225-0.029,5.665-0.169,8.219-0.562
							c2.555-0.392,4.801-0.897,6.23-0.673c0.858,0.135,1.593,0.302,1.967,0.77c20.135-11.323,154.951-94.595,181.054-116.891
							c-0.94-1.855-1.735-4.079-1.133-5.943c0.45-1.387,1.574-2.697,2.342-3.883c-1.557-2.148-3.141-4.017-4.018-4.989
							C591.012,328.055,590.2,328.042,589.123,327.402z M541.046,367.548c-9.202,6.361-50.583,33.449-57.766,38.088
							c-7.184,4.639-33.523,21.176-35.543,21.925c-2.021,0.748-3.518-0.846-2.919-2.62c1.797-5.313,8.157-18.183,12.647-25.292
							c4.49-7.109,13.168-20.427,22.448-30.23c9.278-9.802,24.169-20.653,30.23-24.245s17.809-10.326,24.096-13.244
							c6.285-2.918,18.031-7.558,23.195-8.531c5.164-0.972,5.762,0.075,7.185,1.946c1.421,1.872,5.761,8.381,10.399,18.183
							C572.924,345.174,550.25,361.188,541.046,367.548z"/>
						<path fill="#FFA81C" d="M595.859,327.477c-1.798-2.616-4.94-6.247-6.344-7.593c2.64,3.816,3.48,5.78,2.975,6.846
							c-0.201,0.427-0.495,0.789-0.89,1.004c0.877,0.972,2.461,2.84,4.018,4.989c0.377-0.589,0.672-1.15,0.746-1.672
							C596.59,329.479,596.044,328.263,595.859,327.477z"/>
						<path fill="#3D201C" d="M455.835,465.462c-1.438-8.627-9.148-11.177-17.982-7.058c1.978,2.975,10.572,15.846,11.829,16.672
							c1.422,0.936,2.657,1.272,4.134,1.048C455.331,473.43,456.453,469.165,455.835,465.462z"/>
						<g>
							<g>
								<path fill="#423EAF" d="M451.506,472.102c0,10.958-7.693,24.284-17.185,29.763c-9.49,5.48-17.184,1.037-17.184-9.921
									c0-10.959,7.694-24.285,17.184-29.764C443.812,456.702,451.506,461.145,451.506,472.102z"/>
								<path fill="#312E82" d="M429.57,470.68c-6.737,6.919-10.071,17.607-7.447,23.872c2.624,6.263,10.214,5.733,16.95-1.186
									c6.737-6.919,10.072-17.606,7.448-23.872C443.896,463.231,436.308,463.761,429.57,470.68z"/>
								<path fill="#6460C7" d="M430.054,471.835c-6.05,6.215-9.046,15.814-6.689,21.441c2.356,5.626,9.173,5.149,15.224-1.065
									c6.052-6.215,9.046-15.813,6.69-21.441C442.922,465.144,436.105,465.622,430.054,471.835z"/>
								<g>
									<path fill="#CDCDE6" d="M422.369,485.377c0.682-3.298,2.127-6.778,4.206-9.907c1.948-3.024,4.393-5.569,7.032-7.276
										c2.645-1.603,5.247-2.272,7.428-1.893c2.15,0.21,3.867,1.525,4.853,3.851c0.877,2.407,1,5.412,0.338,8.692
										c-0.564,3.204-1.979,6.621-4.004,9.711c-2.03,3.022-4.492,5.611-7.192,7.354c-2.62,1.71-5.249,2.365-7.342,2.031
										c-2.216-0.352-3.93-1.737-4.892-4.072C421.831,491.546,421.749,488.482,422.369,485.377z M431.828,480.801
										c-0.28-0.047-0.654,0.263-0.834,0.691c-0.18,0.427-0.099,0.812,0.181,0.858c0.281,0.046,0.655-0.262,0.835-0.691
										C432.19,481.23,432.109,480.847,431.828,480.801z M445.337,479.235c0.646-3.087,0.568-5.977-0.438-8.239
										c-1.506,1.308-3.123,2.872-4.695,4.586c-2.101,2.262-1.955,5.728,0.25,5.235
										C442.11,480.459,443.787,479.897,445.337,479.235z M434.855,494.993c2.54-1.606,4.9-4.037,6.864-7.097
										c-0.829-1.059-1.85-2.068-3.016-2.892c-1.515-1.11-4.392,1.811-4.353,4.45
										C434.371,491.479,434.561,493.367,434.855,494.993z M438.343,479.479c-0.02-0.374-0.304-0.502-0.638-0.288
										c-0.333,0.214-0.587,0.689-0.567,1.063c0.018,0.374,0.304,0.502,0.637,0.288
										C438.107,480.328,438.362,479.853,438.343,479.479z M435.366,484.46c-0.31,0.318-0.464,0.812-0.344,1.101
										c0.121,0.289,0.471,0.264,0.782-0.054c0.311-0.319,0.464-0.812,0.343-1.101
										C436.027,484.117,435.676,484.142,435.366,484.46z M435.37,476.999c-0.323,0.088-0.653,0.5-0.737,0.923
										c-0.084,0.421,0.108,0.69,0.431,0.603c0.322-0.09,0.652-0.502,0.737-0.924C435.885,477.179,435.692,476.91,435.37,476.999z
										 M433.621,475.093c0.215,2.502,3.182,1.734,4.507-1.216c0.999-2.203,1.859-4.412,2.532-6.426
										c-2.08-0.399-4.584,0.241-7.131,1.913C433.422,471.228,433.438,473.205,433.621,475.093z M432.112,486.358
										c0.258-0.393,0.296-0.854,0.085-1.03c-0.211-0.177-0.591,0-0.85,0.392c-0.257,0.393-0.295,0.853-0.085,1.03
										C431.474,486.927,431.854,486.751,432.112,486.358z M428.273,496.815c1.021-1.986,2.038-4.205,2.92-6.479
										c1.169-2.956-0.77-4.597-2.94-2.484c-1.677,1.62-3.278,3.371-4.673,5.057C424.513,495.263,426.186,496.526,428.273,496.815
										z M428.052,484.211c2.247-0.718,3.913-4.669,2.535-5.985c-1.045-1.021-2.208-1.839-3.355-2.43
										c-2.016,2.992-3.41,6.341-4.022,9.5C424.673,485.135,426.333,484.781,428.052,484.211z"/>
									<path fill="#DBE5FF" d="M436.684,479.618c0.496,1.185-0.135,3.205-1.409,4.513c-1.273,1.308-2.708,1.408-3.204,0.224
										c-0.496-1.184,0.135-3.204,1.409-4.513C434.753,478.535,436.188,478.434,436.684,479.618z"/>
								</g>
							</g>
							<path fill="#1F1C63" d="M417.137,491.944c0-10.959,7.694-24.285,17.184-29.764c7.381-4.261,13.673-2.521,16.108,3.618
								c-0.858-3.266-3.104-5.442-5.021-6.817c-1.184-0.848-9.251-5.319-9.251-5.319l-15.733,12.537l-9.268,31.097
								c0,0,8.004,4.612,8.855,5.094c1.184,0.666,3.484,1.417,4.438,1.578C420.027,502.929,417.137,498.66,417.137,491.944z"/>
						</g>
						<path fill="#FED645" d="M435.574,446.194c-10.5,6.389-18.412,11.104-22.219,13.246c0.249,0.313,0.339,0.757,0.195,1.419
							c-0.366,1.657-1.433,4.64-3.005,6.847c-1.571,2.206-3.44,3.815-7.257,5.724c-3.817,1.909-14.592,2.695-18.934,2.319
							c-4.261-0.355-13.062-2.124-22.354-5.462c-9.372-3.367-21.75-9.026-31.484-17.061c-5.052-4.171-12.939-11.071-15.399-17.146
							c-1.302-3.22-1.244-7.639-0.465-9.792c-0.977,1.713-1.89,4.957-2.128,6.139c-0.112,0.224-0.467,4.066-0.041,6.583
							c0.38,2.251,2.198,7.556,2.947,8.681c5.626,7.363,18.894,16.656,23.354,19.155c5.581,3.125,24.401,11.352,30.646,12.33
							c0.373,0.049,3.426,0.343,7.471,0.582c7.426,0.377,12.737,0.363,19.837-1.613c5.613-1.572,17.398-7.707,22.185-10.552
							c-6.334,8.425-8.042,25.413-21.698,30.604c2.744-0.249,11.364-2.37,15.067-3.374c0.794-3.406,1.686-7.435,2.348-9.609
							c1.179-3.872,5.949-12.626,9.486-17.396c3.535-4.771,6.34-7.576,14.31-11.448c2.288-1.111,4.374-1.664,6.243-1.838
							C444.639,451.094,441.322,446.684,435.574,446.194z"/>
						<path fill="#3D201C" d="M599.001,381.503c-0.093-3.253-1.736-6.121-4.695-7.605c-3.025-1.516-7.424-1.582-12.943,0.875
							c2.784,2.302,12.664,10.53,14.234,12.68c0.748-0.037,1.199-0.037,2.244-0.786
							C599.226,384.758,599.039,382.812,599.001,381.503z"/>
						<g>
							<g>
								<path fill="#423EAF" d="M596.264,388.5c0,10.959-7.696,24.285-17.186,29.764c-9.491,5.479-17.183,1.036-17.185-9.922
									c0-10.959,7.693-24.284,17.185-29.765C588.567,373.099,596.264,377.541,596.264,388.5z"/>
								<path fill="#312E82" d="M574.326,387.077c-6.735,6.92-10.069,17.607-7.446,23.872c2.624,6.266,10.211,5.733,16.949-1.186
									c6.736-6.919,10.07-17.606,7.447-23.871C588.652,379.628,581.063,380.159,574.326,387.077z"/>
								<path fill="#6460C7" d="M574.81,388.232c-6.049,6.215-9.047,15.815-6.687,21.441c2.355,5.628,9.172,5.15,15.222-1.064
									c6.051-6.215,9.047-15.815,6.688-21.441C587.678,381.542,580.861,382.018,574.81,388.232z"/>
								<g>
									<path fill="#CDCDE6" d="M567.125,401.774c0.681-3.299,2.127-6.777,4.204-9.906c1.951-3.025,4.395-5.568,7.034-7.277
										c2.644-1.603,5.248-2.272,7.429-1.894c2.147,0.212,3.867,1.527,4.853,3.853c0.877,2.407,1.001,5.412,0.339,8.693
										c-0.564,3.203-1.979,6.622-4.006,9.712c-2.031,3.021-4.491,5.61-7.192,7.353c-2.62,1.71-5.25,2.364-7.343,2.031
										c-2.216-0.352-3.93-1.737-4.892-4.072C566.588,407.944,566.507,404.879,567.125,401.774z M576.584,397.199
										c-0.28-0.045-0.653,0.263-0.834,0.692c-0.179,0.427-0.1,0.811,0.183,0.856c0.278,0.046,0.653-0.263,0.832-0.69
										C576.945,397.629,576.865,397.244,576.584,397.199z M590.095,395.633c0.646-3.089,0.565-5.978-0.439-8.239
										c-1.506,1.309-3.125,2.872-4.696,4.586c-2.1,2.262-1.954,5.727,0.252,5.234
										C586.865,396.856,588.545,396.294,590.095,395.633z M579.61,411.391c2.54-1.607,4.901-4.036,6.865-7.099
										c-0.831-1.056-1.85-2.067-3.016-2.89c-1.515-1.108-4.393,1.811-4.354,4.451
										C579.126,407.877,579.316,409.764,579.61,411.391z M583.099,395.877c-0.018-0.373-0.304-0.502-0.638-0.289
										c-0.333,0.214-0.587,0.69-0.568,1.064c0.021,0.373,0.305,0.502,0.64,0.289C582.863,396.727,583.117,396.25,583.099,395.877
										z M580.121,400.858c-0.308,0.319-0.463,0.812-0.34,1.1c0.12,0.29,0.469,0.265,0.779-0.054
										c0.311-0.319,0.465-0.812,0.344-1.101C580.782,400.514,580.435,400.539,580.121,400.858z M580.126,393.396
										c-0.323,0.089-0.652,0.501-0.737,0.923c-0.086,0.422,0.108,0.691,0.431,0.603c0.323-0.088,0.651-0.501,0.735-0.922
										C580.642,393.579,580.449,393.307,580.126,393.396z M578.378,391.49c0.213,2.502,3.182,1.734,4.508-1.215
										c0.997-2.204,1.856-4.412,2.529-6.427c-2.076-0.398-4.583,0.243-7.131,1.914
										C578.179,387.625,578.195,389.602,578.378,391.49z M576.869,402.757c0.257-0.394,0.294-0.854,0.084-1.031
										c-0.21-0.176-0.593,0-0.85,0.392c-0.258,0.394-0.295,0.854-0.083,1.03C576.231,403.324,576.611,403.149,576.869,402.757z
										 M573.029,413.211c1.021-1.985,2.038-4.203,2.921-6.477c1.168-2.957-0.771-4.599-2.942-2.483
										c-1.677,1.62-3.274,3.37-4.67,5.057C569.271,411.659,570.941,412.924,573.029,413.211z M572.808,400.608
										c2.248-0.717,3.913-4.669,2.536-5.985c-1.046-1.02-2.209-1.839-3.354-2.43c-2.017,2.992-3.411,6.34-4.024,9.499
										C569.429,401.531,571.09,401.178,572.808,400.608z"/>
									<path fill="#DBE5FF" d="M581.44,396.016c0.495,1.185-0.135,3.204-1.408,4.513s-2.708,1.408-3.204,0.225
										c-0.495-1.184,0.135-3.205,1.405-4.512C579.509,394.933,580.944,394.833,581.44,396.016z"/>
								</g>
							</g>
							<path fill="#1F1C63" d="M561.894,408.342c0-10.959,7.693-24.284,17.185-29.765c7.379-4.261,13.672-2.521,16.108,3.619
								c-0.86-3.267-3.104-5.442-5.021-6.817c-1.186-0.85-9.253-5.321-9.253-5.321l-15.732,12.537l-9.269,31.098
								c0,0,8.005,4.613,8.854,5.094c1.188,0.666,3.487,1.417,4.439,1.577C564.783,419.326,561.894,415.058,561.894,408.342z"/>
						</g>
						<path fill="#FFA81C" d="M600.198,347.816c-0.433,0.549-0.849,0.746-1.31,0.688c-0.897-0.111-3.086-3.367-4.152-5.332
							c-0.109-0.202-0.22-0.411-0.327-0.624c-21.167,18.08-113.814,76.251-158.835,103.646c5.748,0.489,9.065,4.899,9.106,8.337
							c4.642-0.433,7.927,1.467,9.528,2.961c2.245,2.094,3.441,5.312,3.329,8.155c-0.113,2.845,0.15,2.995,0.974,2.545
							c2.085-1.137,10.551-6.21,13.544-8.081c2.992-1.872,34.721-20.876,39.06-23.647c4.34-2.768,26.937-16.686,30.306-19.004
							c3.368-2.321,14.086-8.513,14.871-9.692c0.787-1.178,3.817-9.148,5.837-13.244c2.022-4.098,5.556-9.541,10.943-15.153
							c5.389-5.611,10.102-7.072,13.19-8.081c2.371-0.777,6.166-0.756,9.126,0.695C597.709,367.332,601.411,356.923,600.198,347.816
							z"/>
						<path fill="#E68D00" d="M600.392,384.249c0.707-4.925-0.572-10.093-5.003-12.264c2.32-4.653,6.022-15.062,4.81-24.168
							c0.412-0.524,0.837-1.367,1.33-2.623c0.11,1.458,0.167,4.152,0.055,5.78c0.784,1.178,2.582,2.788,2.862,6.341
							C605.05,364.982,605.234,377.842,600.392,384.249z"/>
						<path fill="#E67300" d="M600.39,347.55c-0.062,0.095-0.126,0.186-0.191,0.266c-0.065,0.083-0.13,0.155-0.194,0.223
							c1.318,10.61-4.024,23.074-5.903,25.761c0.069,0.032,0.136,0.064,0.205,0.098c0.066,0.034,0.13,0.073,0.197,0.108
							C596.477,371.101,601.915,358.292,600.39,347.55z"/>
						<path fill="#E68D00" d="M600.392,384.249c-0.733,0.966-1.576,1.785-2.551,2.417c1.385-1.908,1.198-3.854,1.16-5.163
							c-0.093-3.253-1.736-6.121-4.695-7.605c-3.185-1.596-7.894-1.587-13.825,1.282c-12.184,5.893-21.477,26.41-24.524,39.659
							c-2.861,1.909-33.055,20.766-45.963,28.623c-12.908,7.858-48.376,28.117-56.178,32.663c1.515-2.695,2.638-6.96,2.02-10.663
							c-2.237-13.423-19.66-12.139-32.868,6.098c-3.144,4.339-7.558,12.945-9.129,22.822c-0.288,1.384-0.851,3.828-1.412,4.388
							c-0.144,0.144-0.586,0.382-1.293,0.679c0.892-2.986,2.483-10.87,3.508-14.233c1.179-3.872,5.949-12.626,9.486-17.396
							c3.535-4.771,6.34-7.576,14.31-11.448c7.969-3.873,13.526-0.973,15.771,1.123c2.245,2.094,3.441,5.312,3.329,8.155
							c-0.113,2.845,0.15,2.995,0.974,2.545c2.085-1.137,10.551-6.21,13.544-8.081c2.992-1.872,34.721-20.876,39.06-23.647
							c4.34-2.768,26.937-16.686,30.306-19.004c3.368-2.321,14.086-8.513,14.871-9.692c0.787-1.178,3.817-9.148,5.837-13.244
							c2.022-4.098,5.556-9.541,10.943-15.153c5.389-5.611,10.102-7.072,13.19-8.081c2.371-0.777,6.166-0.756,9.126,0.695
							C599.819,374.156,601.099,379.324,600.392,384.249z"/>
						<path fill="#1F1C63" d="M395.562,493.957c-1.083,1.582-2.121,3.132-6.427,4.317c-3.805,1.046-10.465,1.084-16.264,0.41
							c-5.801-0.673-13.395-2.992-20.167-5.799c-6.771-2.805-16.237-6.846-25.627-14.815c-9.392-7.97-10.825-10.257-12.872-15.713
							c-1.235-3.294-1.422-6.324-1.495-6.773c-0.6-0.787-0.937-1.309-1.2-1.946c-0.276-1.347-0.346-4.671-0.103-6.188
							c1.023,3.837,3.206,9.928,5.791,12.923c2.281,2.469,7.708,7.856,19.755,15.19c12.008,7.311,23.311,11.048,29.201,12.779
							c2.451,0.728,11.056,2.374,19.278,2.4c3.492,0.013,6.9-0.292,9.158-0.471c0.904,0.051,1.524,0.16,1.856,0.471
							C396.978,491.25,396.754,492.217,395.562,493.957z"/>
						<path fill="#FFA81C" d="M418.925,467.593c-5.865,7.801-8.107,23.911-19.403,29.56c-0.694,0.378-1.636,0.794-2.295,1.044
							c-2.785,0.897-7.044,2.278-11.562,2.362c3.019-0.124,5.197-0.595,7.372-1.819c3.394-1.908,5.077-5.723,5.189-6.622
							c0.113-0.897-0.026-1.852-1.176-1.964c-0.397-0.039-1.268,0.023-2.46,0.117c-2.258,0.179-5.666,0.484-9.158,0.471
							c-8.222-0.026-16.827-1.672-19.221-2.384c1.36-2.673,2.496-6.2,3.221-9.182c0.298,0.038,4.422,0.455,9.541,0.681
							c6.735,0.245,11.447,0.046,17.767-1.712C402.353,476.573,414.139,470.438,418.925,467.593z"/>
						<path fill="#E68D00" d="M369.432,479.176c-0.725,2.982-1.861,6.509-3.278,9.166c-5.89-1.731-17.193-5.468-29.201-12.779
							c-12.047-7.334-17.474-12.722-19.755-15.19c-0.041-0.051-0.083-0.102-0.125-0.152c-0.751-3.458-1.584-9.055-1.641-12.529
							c5.626,7.363,18.894,16.656,23.354,19.155C344.366,469.972,363.187,478.198,369.432,479.176z"/>
						<path fill="#FFA81C" d="M311.286,446.979c-0.205-0.829,0.318-10.854,1.225-14.49c-0.158,0.795-0.417,4.218-0.026,6.521
							c0.381,2.251,2.198,7.556,2.947,8.681c0.057,3.475,0.89,9.071,1.641,12.529C314.443,456.975,312.311,451.014,311.286,446.979z
							"/>
						<path fill="#FED645" d="M398.226,492.118c-0.112,0.899-1.795,4.714-5.189,6.622c-3.38,1.9-6.774,1.994-13.384,1.766
							c-6.595-0.223-12.477-1.363-19.036-3.581c-6.697-2.264-14.946-5.818-21.708-9.633c-6.765-3.816-11.224-7.604-14.089-9.877
							c-2.861-2.274-6.201-4.996-9.455-9.784c-3.399-5.004-4.306-8.957-3.855-13.994c0.263,0.638,0.6,1.16,1.2,1.946
							c0.072,0.449,0.26,3.479,1.495,6.773c2.046,5.457,3.479,7.744,12.872,15.713c9.391,7.969,18.857,12.01,25.627,14.815
							c6.772,2.807,14.366,5.125,20.167,5.799c5.798,0.674,12.458,0.636,16.264-0.41c4.306-1.186,5.344-2.735,6.427-4.317
							c1.192-1.74,1.417-2.708,0.884-3.215c-0.332-0.311-0.952-0.42-1.856-0.471c1.192-0.094,2.063-0.155,2.46-0.117
							C398.2,490.267,398.339,491.221,398.226,492.118z"/>
						<path fill="#E68D00" d="M412.295,494.824c-0.433,1.866-0.837,3.542-1.161,4.625c-4.552,1.913-20.06,6.208-37.123,2.549
							c-18.273-3.925-46.136-16.997-57.839-32.13c-3.804-4.922-5.926-10.368-4.663-16.229c-0.45,5.037,0.457,8.99,3.855,13.994
							c3.254,4.788,6.594,7.509,9.455,9.784c2.865,2.273,7.324,6.061,14.089,9.877c6.761,3.815,15.01,7.37,21.708,9.633
							c6.56,2.218,12.441,3.357,19.036,3.581c7.671,0.264,10.245,0.055,17.575-2.309
							C399.971,497.948,408.591,495.828,412.295,494.824z"/>
						<path fill="#FFA81C" d="M472.547,371.623c5.312-6.351,10.962-12.357,16.045-16.795c9.428-8.231,23.122-17.66,35.767-24.917
							c12.646-7.26,39.958-19.68,42.727-20.429c-17.452-13.012-38.369-27.067-58.964-34.421
							c-34.72,13.201-90.491,45.906-102.964,56.944C409.54,338.248,448.652,361.696,472.547,371.623z"/>
						<path fill="#FFB82B" d="M574.282,306.364c-2.052,0.755-5.157,2.017-7.196,3.118c1.792,1.456,4.249,3.55,6.597,5.594
							c0.944-2.117,1.144-5.612,0.624-8.606C574.302,306.437,574.29,306.399,574.282,306.364z"/>
						<path fill="#E68D00" d="M553.263,286.884c-16.109-10.178-31.636-13.357-33.991-13.88c-2.357-0.525-4.229-0.225-5.724,0.149
							c-1.498,0.375-4.228,1.422-5.426,1.909c20.595,7.354,41.512,21.409,58.964,34.421c2.039-1.101,5.145-2.362,7.196-3.118
							C573.571,303.034,565.288,294.483,553.263,286.884z"/>
						<path fill="#E67300" d="M596.364,331.05c-0.226,1.572-2.414,3.48-3.088,5.556c-0.673,2.077,0.392,4.603,1.46,6.566
							c1.066,1.965,3.255,5.22,4.152,5.332c0.461,0.059,0.877-0.139,1.31-0.688c0.412-0.525,0.837-1.367,1.33-2.623
							c0.171-1.687-2.451-13.162-5.669-17.717C596.044,328.263,596.59,329.479,596.364,331.05z"/>
						<path fill="#FFA81C" d="M347.851,387.758c-9.025,11.307-21.107,25.789-25.464,47.565c-0.227-0.242-0.458-0.483-0.679-0.728
							c0.617-3.93,1.476-8.233,0.954-12.627c-0.463-3.878-0.787-10.383,2.413-14.312
							C330.201,402.724,341.993,393.289,347.851,387.758z"/>
						<path fill="#FFB82B" d="M470.804,370.885c-3.214,4.468-14.137,19.883-18.278,26.295c-4.64,7.185-15.266,24.321-18.41,26.489
							c-3.142,2.17-8.761,3.147-18.482,1.272c-30.187-5.82-50.757-23.494-55.147-30.081c-4.491-6.735-5.501-10.326-4.491-13.076
							c1.01-2.75,6.005-8.306,8.475-10.999c14.611-15.94,35.925-33.59,41.401-37.929c-0.291-0.309-0.535-0.596-0.714-0.851
							c-24.101,16.899-54.509,52.879-54.998,53.427c-0.582,0.651-1.37,1.44-2.31,2.327c-9.025,11.307-21.107,25.789-25.464,47.565
							c14.163,15.186,36.297,25.806,50.446,28.988c1.346-1.459,15.339-10.262,18.93-12.208c3.592-1.945,18.934-10.028,27.015-15.489
							c8.082-5.462,15.265-9.579,19.678-15.265c4.416-5.686,14.219-22.224,21.775-33.448c3.737-5.548,8.055-11.186,12.314-16.28
							C471.975,371.384,471.393,371.136,470.804,370.885z"/>
						<path fill="#E8EEFF" d="M413.551,460.859c-0.366,1.657-1.433,4.64-3.005,6.847c-1.571,2.206-3.44,3.815-7.257,5.724
							c-3.865,1.933-15.199,2.888-20.994,2.084c-2.6-0.359-5.213-0.9-7.788-1.504c-3.044-2.832-0.027-6.69,2.591-9.559
							c2.218-2.188,5.461-3.619,8.082-4.125c4.177-0.806,13.102,0.077,19.978-0.982c2.555-0.392,4.801-0.897,6.23-0.673
							C412.818,458.895,413.914,459.202,413.551,460.859z"/>
						<path fill="#1F1C63" d="M374.507,474.01c-14.838-3.522-32.229-11.076-43.99-20.783c-3.923-3.24-8.795-7.511-12.162-11.829
							c2.79,1.119,3.199-3.186,3.352-6.802c0.221,0.245,0.452,0.486,0.679,0.728c14.163,15.186,36.297,25.806,50.446,28.988
							c0.925-0.17,2.975-0.059,4.266,0.139C374.48,467.32,371.463,471.178,374.507,474.01z"/>
						<path fill="#E8EEFF" d="M322.661,421.968c0.522,4.395-0.337,8.698-0.954,12.627c-0.153,3.616-0.562,7.921-3.352,6.802
							c-1.905-2.45-2.908-4.376-3.361-5.629c-1.132-2.968-1.13-7.301-0.341-9.479c0.729-1.891,3.069-8.12,4.229-10.625
							c1.159-2.508,3.592-5.875,6.191-8.008C321.875,411.584,322.198,418.09,322.661,421.968z"/>
						<path fill="#292585" d="M320.82,440.278c-0.146,0.318-0.316,0.587-0.516,0.798c4.988,6.278,12.151,12.152,21.324,17.477
							c13.403,7.783,24.262,11.239,31.605,12.761c-0.005-0.296,0.023-0.597,0.083-0.899c-7.269-1.519-17.993-4.948-31.236-12.637
							C332.888,452.439,325.744,446.557,320.82,440.278z M321.526,437.208c-0.046,0.416-0.102,0.819-0.171,1.204
							c7.909,9.445,20.792,16.829,27.978,20.479c9.273,4.708,18.796,8.207,24.917,9.229c0.161-0.274,0.337-0.549,0.524-0.821
							C362.248,465.409,333.599,452.171,321.526,437.208z"/>
						<path fill="#1F1C63" d="M405.873,332.856c-5.476,4.339-26.79,21.989-41.401,37.929c-2.47,2.693-7.465,8.25-8.475,10.999
							c-1.01,2.75,0,6.341,4.491,13.076c4.39,6.587,24.96,24.261,55.147,30.081c9.721,1.875,15.34,0.898,18.482-1.272
							c3.144-2.168,13.77-19.304,18.41-26.489c4.141-6.412,15.064-21.827,18.358-26.26
							C447.884,361.062,412.55,339.969,405.873,332.856z M451.553,396.009c-7.315,11.248-16.555,26.065-19.289,27.25
							c-1.683,0.729-9.035,1.908-19.304-1.011c-10.271-2.918-24.638-9.036-33.167-14.759c-8.531-5.725-18.578-15.378-20.485-19.924
							c-1.909-4.546-0.955-6.848,2.301-11c9.805-12.511,30.837-31.156,43.156-41.137c17.51,12.403,42.092,26.209,63.025,36.423
							C464.528,375.929,457.207,387.317,451.553,396.009z"/>
						<path fill="#292585" d="M404.765,335.428c-12.319,9.981-33.351,28.626-43.156,41.137c-3.256,4.152-4.209,6.454-2.301,11
							c1.907,4.545,11.954,14.199,20.485,19.924c8.529,5.723,22.896,11.841,33.167,14.759c10.27,2.918,17.621,1.739,19.304,1.011
							c2.734-1.185,11.973-16.002,19.289-27.25c5.654-8.691,12.975-20.08,16.237-24.158
							C446.857,361.637,422.275,347.832,404.765,335.428z"/>
						<path fill="#E67300" d="M431.035,425.12c-0.159,0.05-0.319,0.096-0.484,0.141c-0.061,0.319-0.12,0.638-0.177,0.951
							c-0.664,3.603-1.351,7.329-4.742,11.916c-2.366,3.198-9.028,8.358-15.47,13.349c-3.943,3.056-7.694,5.963-10.408,8.366
							c0.244-0.011,0.481-0.022,0.718-0.034c2.663-2.32,6.228-5.082,9.965-7.978c6.467-5.009,13.153-10.189,15.556-13.437
							c3.454-4.669,4.149-8.447,4.823-12.103C430.886,425.908,430.959,425.515,431.035,425.12z"/>
						<path fill="#FFA81C" d="M378.12,355.375c0.204-1.184-0.106-2.204-0.742-3.279c-0.729-1.235-2.637-3.312-3.367-3.704
							c-0.729-0.394-2.077,0.393-2.918,1.235c-0.842,0.842-2.413,3.629-2.638,5.874c-0.208,2.097,0.463,5.239,2.062,7.565
							C372.937,360.56,375.486,357.972,378.12,355.375z"/>
						<path fill="#1F1C63" d="M564.618,325.345c-1.423-1.871-2.021-2.918-7.185-1.946c-5.164,0.973-16.91,5.613-23.195,8.531
							c-6.287,2.918-18.034,9.652-24.096,13.244s-20.952,14.443-30.23,24.245c-9.28,9.803-17.958,23.121-22.448,30.23
							c-4.49,7.109-10.85,19.979-12.647,25.292c-0.599,1.774,0.899,3.368,2.919,2.62c2.02-0.749,28.36-17.286,35.543-21.925
							c7.183-4.64,48.564-31.728,57.766-38.088c9.204-6.36,31.878-22.374,33.972-24.02
							C570.379,333.726,566.039,327.216,564.618,325.345z M449.906,424.194c-1.717,1.005-2.656,0.663-2.488-0.348
							c0.621-3.729,6.983-16.443,8.923-19.726c0.393,4.003,0.954,10.944,1.272,15.284
							C455.967,420.377,452.076,422.921,449.906,424.194z M463.076,416.243c-0.561-4.939-2.021-14.143-2.862-18.52
							c1.347-2.357,10.999-16.163,18.856-25.142c7.857-8.98,21.569-19.287,27.405-22.992c2.243,7.408,4.19,18.333,5.763,34.833
							C509.655,386.106,478.79,406.703,463.076,416.243z M522.489,378.1c-1.72-10.552-6.586-26.863-8.681-32.776
							c11.674-7.557,21.478-12.645,34.047-17.51c1.349,2.396,4.791,15.416,7.559,27.538
							C552.946,356.923,527.502,374.583,522.489,378.1z M549.428,327.515c4.115-1.646,6.811-2.32,8.905-2.768
							c2.095-0.449,3.741-0.449,5.237,1.57c1.497,2.021,5.912,9.729,9.578,16.762c-2.844,1.571-12.944,8.979-16.387,11.374
							C555.563,348.243,550.476,330.658,549.428,327.515z"/>
						<g>
							<g>
								<path fill="#FFA81C" d="M514.005,394.693c-2.721-2.269-6.491,1.417-6.352,4.751c0.028,0.629,0.134,1.114,0.29,1.492
									l7.087-4.474C514.823,395.756,514.45,395.062,514.005,394.693z"/>
								<path fill="#FED645" d="M507.943,400.936c0.334,0.819,0.894,1.138,1.356,1.332c2.12,0.887,5.979-1.583,5.913-4.742
									c-0.008-0.328-0.073-0.697-0.183-1.063L507.943,400.936z"/>
							</g>
							<g>
								<path fill="#CDCDE6" d="M507.383,400.528c-0.407,0.273-0.365,1.273,0.319,1.488c0.651,0.206,2.065-0.814,3.133-1.516
									c6.487-4.269,7.126-4.773,7.156-5.36c0.026-0.561-0.247-1.121-0.675-1.038L507.383,400.528z"/>
								<path fill="#6460C7" d="M507.702,402.017c-0.685-0.215-0.727-1.215-0.319-1.488l9.934-6.425
									c0.198-0.037,0.359,0.062,0.478,0.233c-0.169-0.317-0.478-0.611-0.87-0.513l-10.227,6.355
									c-0.819,0.648-0.28,2.02,0.601,2.02c0.465,0,1.025-0.169,1.558-0.448C508.413,401.964,507.984,402.105,507.702,402.017z"/>
							</g>
						</g>
						<g>
							<g>
								<path fill="#FFA81C" d="M573.269,356.081c-2.721-2.268-6.489,1.417-6.35,4.751c0.025,0.629,0.132,1.115,0.288,1.494
									l7.089-4.475C574.087,357.145,573.713,356.45,573.269,356.081z"/>
								<path fill="#FED645" d="M567.207,362.326c0.334,0.819,0.894,1.137,1.358,1.331c2.118,0.888,5.974-1.583,5.911-4.742
									c-0.006-0.328-0.073-0.697-0.181-1.063L567.207,362.326z"/>
							</g>
							<g>
								<path fill="#CDCDE6" d="M566.646,361.917c-0.408,0.274-0.365,1.273,0.319,1.488c0.651,0.206,2.067-0.813,3.133-1.516
									c6.487-4.267,7.125-4.772,7.156-5.358c0.026-0.562-0.246-1.122-0.675-1.039L566.646,361.917z"/>
								<path fill="#6460C7" d="M566.966,363.404c-0.685-0.215-0.728-1.214-0.319-1.488l9.934-6.425
									c0.197-0.039,0.361,0.061,0.478,0.233c-0.169-0.318-0.478-0.612-0.868-0.514l-10.229,6.356
									c-0.816,0.65-0.28,2.021,0.601,2.021c0.467,0,1.027-0.169,1.559-0.45C567.677,363.351,567.248,363.494,566.966,363.404z"/>
							</g>
						</g>
						<path fill="#FED645" d="M458.512,468.192c2.085-1.137,10.551-6.21,13.544-8.081c2.992-1.872,34.721-20.876,39.06-23.647
							c4.34-2.768,26.937-16.686,30.306-19.004c3.05-2.103,12.127-7.377,14.398-9.23c-2.687,0.053-5.397,0.315-7.775,1.333
							c-2.751,1.179-18.744,11.505-24.468,15.209c-17.74,11.479-57.169,35.811-61.455,38.5c-2.473,1.551-3.604,3.604-4.119,5.111
							C458.141,468.378,458.309,468.304,458.512,468.192z"/>
						<path fill="#E67300" d="M580.026,353.506c-0.292-1.275-3.88-8.401-5.083-10.133c0.025,0.053,0.049,0.104,0.074,0.155
							c-0.078,0.065-0.196,0.152-0.336,0.257c1.247,1.899,4.641,8.647,4.908,9.82c0.269,1.178-1.092,6.046-2.67,8.858
							c-2.393,4.256-5.525,9.775-6.878,11.886c-0.894,1.392-2.814,4.766-4.511,7.742c-1.222,2.144-2.373,4.169-2.938,5.096
							c-1.383,2.266-8.84,20.651-9.229,21.978c-0.419,1.431-2.974,4.709-4.633,5.943c-0.865,0.646-8.268,5.317-15.427,9.835
							c-5.699,3.596-11.578,7.307-14.071,8.933c0.033-0.369,0.076-0.682,0.119-0.964c0.073-0.53,0.14-0.987,0.124-1.605
							c-0.014-0.511-0.148-1.148-0.28-1.764c-0.146-0.691-0.297-1.406-0.254-1.858c0.1-1.074,0.73-8.774,0.871-12.809
							c0.118-3.457,0.409-17.656-0.059-21.649c-0.347-3-1.47-7.673-2.145-10.072c-0.132,0.086-0.262,0.173-0.394,0.259
							c0.668,2.415,1.761,6.998,2.093,9.865c0.434,3.717,0.216,16.945,0.056,21.582c-0.146,4.224-0.812,12.171-0.87,12.783
							c-0.049,0.518,0.103,1.233,0.263,1.991c0.126,0.595,0.258,1.213,0.27,1.682c0.015,0.582-0.046,1.022-0.122,1.531
							c-0.053,0.374-0.113,0.797-0.149,1.34c-2.675,1.718-52.573,31.63-58.405,35.073c0.035-0.873-0.013-2.169-0.049-3.159
							c-0.018-0.49-0.033-0.915-0.033-1.146c0-0.77-1.513-26.695-1.797-30.268c-0.25-3.142-1.063-9.896-1.891-12.316
							c-0.132,0.081-0.264,0.161-0.393,0.241c0.771,2.357,1.577,8.838,1.836,12.11c0.283,3.569,1.795,29.464,1.795,30.232
							c0,0.241,0.015,0.668,0.033,1.163c0.042,1.156,0.101,2.74,0.023,3.528l-0.042,0.438l0.379-0.222
							c3.619-2.114,57.504-34.414,58.881-35.362c2.224-1.462,8.439-5.385,14.45-9.179c7.166-4.522,14.574-9.199,15.455-9.854
							c1.598-1.189,4.311-4.524,4.794-6.178c0.389-1.32,7.808-19.618,9.181-21.871c0.57-0.932,1.724-2.96,2.946-5.106
							c1.693-2.971,3.612-6.34,4.498-7.723c1.358-2.12,4.498-7.646,6.89-11.909C578.845,359.949,580.343,354.889,580.026,353.506z"
							/>
						<g>
							<path fill="#1F1C63" d="M589.516,319.883c-3.413-4.307-10.979-10.947-15.316-13.829c0.033,0.107,0.062,0.211,0.083,0.31
								c0.008,0.035,0.02,0.073,0.024,0.105c3.976,2.882,10.508,8.939,11.954,10.681c1.198,1.443,3.981,4.683,3.513,5.383
								c-0.352,0.531-1.681,0.449-3.477-0.561c-1.795-1.009-7.589-5.459-9.049-6.767c-1.758-1.582-2.38-2.553-2.749-3.571
								c-0.13,1.307-0.399,2.508-0.816,3.441c1.055,0.921,2.093,1.835,3.038,2.674c3.031,2.694,10.606,8.587,12.402,9.652
								c1.796,1.067,2.864,0.394,3.367-0.673C592.996,325.663,592.155,323.699,589.516,319.883z"/>
							<path fill="#403A9E" d="M586.261,317.15c-1.446-1.742-7.979-7.799-11.948-10.65c0.285,1.667,0.35,3.485,0.187,5.135
								c0.369,1.019,0.991,1.99,2.749,3.571c1.46,1.308,7.254,5.758,9.049,6.767c1.796,1.009,3.125,1.091,3.477,0.561
								C590.242,321.833,587.459,318.594,586.261,317.15z"/>
						</g>
						<g>
							<path fill="#403A9E" d="M404.765,335.428c-9.22,7.47-23.317,19.792-33.94,30.763c0.843,0.295,1.87,0.725,3.041,1.26
								c10.91-7.422,27.328-18.586,39.441-26.22C410.319,339.276,407.459,337.336,404.765,335.428z"/>
							<g>
								<path fill="#2D288F" d="M424.41,348.219c-1.448,2.264-2.644,5.844-3.528,7.818c-0.972,2.168-2.503,8.741,1.496,12.189
									c1.097,0.945,17.759,10.477,34.35,19.824c4.367-6.697,8.741-13.298,11.062-16.199
									C453.892,365.07,438.388,356.705,424.41,348.219z"/>
								<path fill="#2D288F" d="M506.476,349.589c-5.836,3.705-19.548,14.012-27.405,22.992
									c-5.229,5.975-11.251,14.087-15.094,19.542c7.681,4.306,14.833,8.285,19.8,11.005c13.482-8.744,26.803-17.625,28.462-18.705
									C510.666,367.922,508.719,356.997,506.476,349.589z"/>
							</g>
							<g>
								<path fill="#403A9E" d="M460.214,397.723c0.841,4.377,2.301,13.581,2.862,18.52c5.624-3.416,13.186-8.245,20.699-13.115
									c-4.966-2.72-12.117-6.699-19.798-11.005C462.045,394.864,460.664,396.934,460.214,397.723z"/>
								<path fill="#403A9E" d="M422.861,368.565c-3.51,0.819-14.104,3.333-16.075,3.811c-2.107,0.508-8.486,1.336-9.359,7.868
									c4.995,2.902,9.393,5.515,11.939,7.013c7.627,4.487,16.938,10.208,18.619,10.544c1.684,0.336,4.208-0.701,6.003-0.673
									c3.533,0.057,6.42,0.953,12.099,7.331c1.855-2.865,3.715-5.761,5.465-8.451c1.633-2.509,3.403-5.242,5.175-7.959
									C441.344,379.382,425.901,370.558,422.861,368.565z"/>
							</g>
							<g>
								<g>
									<path fill="#544FA8" d="M359.308,387.565c1.907,4.545,11.954,14.199,20.485,19.924
										c8.529,5.723,22.896,11.841,33.167,14.759c10.27,2.918,17.621,1.739,19.304,1.011c2.08-0.901,7.925-9.692,13.823-18.799
										c-5.679-6.378-8.566-7.274-12.099-7.331c-1.795-0.028-4.319,1.009-6.003,0.673c-1.681-0.336-10.992-6.058-18.619-10.544
										c-7.456-4.386-30.788-18.343-38.541-21.066c-3.57,3.689-6.75,7.226-9.216,10.374
										C358.353,380.717,357.399,383.019,359.308,387.565z"/>
									<path fill="#544FA8" d="M456.341,404.121c-1.94,3.283-8.302,15.997-8.923,19.726c-0.168,1.011,0.771,1.353,2.488,0.348
										c2.17-1.273,6.061-3.817,7.708-4.79C457.295,415.064,456.734,408.124,456.341,404.121z"/>
								</g>
								<path fill="#544FA8" d="M443.615,396.38c1.241,0.796,3.78,2.782,5.062,4.071c0.361-0.56,0.72-1.116,1.077-1.667
									c-1.224-1.44-4.017-3.741-6.213-4.908c-2.393-1.272-5.272-2.057-7.142-0.972c-1.583,0.917-1.343,3.146-0.983,4.309
									c2.95,0.323,5.773,1.746,10.671,7.248c0.67-1.034,1.339-2.07,2.004-3.101c-0.154-0.185-0.348-0.409-0.587-0.679
									c-0.935-1.046-3.59-1.495-4.262-1.495c-0.673,0-2.132-0.636-2.917-0.974c-0.785-0.335-2.244-0.971-2.505-1.345
									c-0.262-0.374-0.964-1.48-0.262-2.205C438.642,393.539,442.157,395.446,443.615,396.38z"/>
							</g>
							<path fill="#262278" d="M413.307,341.231c-12.113,7.634-28.531,18.798-39.441,26.22c5.92,2.705,15.517,8.122,23.562,12.793
								c0.873-6.532,7.251-7.36,9.359-7.868c1.971-0.478,12.564-2.992,16.075-3.811c-0.237-0.155-0.403-0.271-0.483-0.339
								c-3.999-3.448-2.467-10.021-1.496-12.189c0.884-1.974,2.08-5.554,3.528-7.818
								C420.075,345.585,413.307,341.231,413.307,341.231z"/>
							<path fill="#2D288F" d="M565.883,341.902c-0.637-1.251-3.216-3.291-3.889-3.664c0.38-0.237,2.955-3.515-0.487-6.207
								c-2.061-1.614-6.039-3.339-10.37-5.174c-0.542,0.201-1.108,0.417-1.709,0.657c1.048,3.143,6.136,20.728,7.334,26.938
								c1.842-1.282,5.594-4.003,9.123-6.494C566.526,345.601,566.718,343.545,565.883,341.902z M513.809,345.324
								c2.095,5.913,6.961,22.224,8.681,32.776c5.013-3.517,30.457-21.177,32.925-22.748c-2.768-12.122-6.21-25.142-7.559-27.538
								C535.286,332.679,525.482,337.767,513.809,345.324z"/>
							<path fill="#403A9E" d="M565.863,347.972c3.065-2.166,5.961-4.161,7.285-4.893c-3.666-7.034-8.081-14.742-9.578-16.762
								c-1.08-1.456-2.24-1.86-3.586-1.804l-1.797,0.265c-1.767,0.382-3.963,0.934-7.051,2.08c4.331,1.834,8.31,3.56,10.37,5.174
								c3.442,2.692,0.867,5.97,0.487,6.207c0.673,0.373,3.252,2.412,3.889,3.664c0.835,1.643,0.644,3.698,0.002,6.057
								C565.877,347.964,565.871,347.968,565.863,347.972z"/>
						</g>
						<g>
							<path fill="#FFA81C" d="M462.403,416.224c1.422-5.237,3.2-8.544,5.836-10.85c0.299-0.261,1.908-0.186,4.527,0.749
								c2.619,0.936,6.922,3.031,8.23,4.564c1.31,1.534,1.46,2.731,1.46,3.629C477.48,418.32,468.014,416.897,462.403,416.224z"/>
							<path fill="#292585" d="M482.456,414.316c-4.976,4.004-14.442,2.581-20.053,1.908c0.326-1.199,0.671-2.294,1.04-3.302
								c-0.587-0.154-1.316-0.311-2.275-0.102c-1.459,0.319-2.302,1.44-2.507,2.132c-0.171,0.58-0.187,1.572,0.673,2.246
								c0.599,0.037,3.293,0.635,6.174,0.935c2.88,0.299,8.567,0.524,10.775,0.299c2.207-0.225,3.703-1.011,5.05-1.871
								S482.456,415.14,482.456,414.316z"/>
						</g>
					</g>
				</g>
			</g>
		</g>
	</g>
	<g>
		<g>
			<g opacity="0.6">
				<path opacity="0.4" fill="#1CAAD9" d="M209.77,217.023l-79.876,46.124c-9.96,5.735-18.631,4.227-22.939-2.827
					c3.568,0.138,7.657-0.987,11.992-3.483l79.903-46.126L209.77,217.023z"/>
			</g>
			<path fill="#F8CD66" d="M104.016,248.201v-55.064c0-16.5,11.583-36.564,25.872-44.813l118.71-68.537
				c7.145-4.125,13.613-4.514,18.295-1.812l-11.677-6.741c-4.683-2.705-11.15-2.315-18.296,1.811l-118.711,68.536
				c-14.289,8.25-25.873,28.313-25.873,44.813l0,55.063c0,8.25,2.896,14.048,7.579,16.75l11.679,6.743
				C106.911,262.248,104.016,256.45,104.016,248.201z"/>
			<path fill="#F8B225" d="M248.599,79.787l-118.712,68.537c-14.289,8.249-25.872,28.313-25.872,44.813v55.064
				c0,16.5,11.583,23.188,25.873,14.937l79.894-46.125l31.545,15.178v-33.392l7.271-4.197c14.289-8.25,25.873-28.312,25.873-44.812
				l-0.001-55.065C274.471,78.225,262.887,71.538,248.599,79.787z"/>
			<g opacity="0.9">
				<path fill="#FFFFFF" d="M126.644,190.248c0-6.115,1.426-11.609,4.283-16.486c2.469-4.276,5.71-7.575,9.726-9.892
					c3.688-2.13,6.833-2.349,9.436-0.658c2.604,1.691,3.906,4.667,3.906,8.925c0,4.397-0.85,9.129-2.544,14.194
					c-0.924,2.799-3.078,7.943-6.471,15.43c-0.922,2.044-2.291,5.187-4.104,9.428l-1.516,3.503
					c-0.982,2.286-1.726,4.071-2.231,5.359c-0.239,0.647-0.357,1.025-0.357,1.132l16.553-9.557l0,9.531l-26.815,15.481v-8.931
					c0-0.205,0.612-1.747,1.839-4.623c0.569-1.322,1.211-2.79,1.928-4.404l2.196-4.918c1.279-2.763,3.291-7.169,6.029-13.215
					c2.591-5.683,4.528-10.597,5.808-14.734c1.042-3.383,1.564-6.277,1.564-8.68c0-1.958-0.476-3.348-1.429-4.173
					c-1.04-0.841-2.377-0.789-4.013,0.156c-2.351,1.356-4.016,3.881-4.999,7.575c-0.327,1.218-0.489,2.547-0.489,3.991v2.474
					l-8.299,4.792V190.248z"/>
				<path fill="#FFFFFF" d="M154.395,196.841l14.902-49.51l8.433-4.87v40.907l5.399-3.116v9.789l-5.399,3.117l0.001,13.909
					l-8.433,4.869v-13.91l-14.902,8.604L154.395,196.841z M169.297,188.238v-20.176l-6.965,24.197L169.297,188.238z"/>
				<path fill="#FFFFFF" d="M212.257,118.509l6.875-3.97l-23.336,84.108l-6.876,3.969L212.257,118.509z"/>
				<path fill="#FFFFFF" d="M250.277,100.578v9.789l-11.824,61.644l-8.277,4.779l11.826-61.645l-17.067,9.854l0-9.79
					L250.277,100.578z"/>
				<path fill="#FFFFFF" d="M126.644,190.248c0-6.115,1.426-11.609,4.283-16.486c2.469-4.276,5.71-7.575,9.726-9.892
					c3.688-2.13,6.833-2.349,9.436-0.658c2.604,1.691,3.906,4.667,3.906,8.925c0,4.397-0.85,9.129-2.544,14.194
					c-0.924,2.799-3.078,7.943-6.471,15.43c-0.922,2.044-2.291,5.187-4.104,9.428l-1.516,3.503
					c-0.982,2.286-1.726,4.071-2.231,5.359c-0.239,0.647-0.357,1.025-0.357,1.132l16.553-9.557l0,9.531l-26.815,15.481v-8.931
					c0-0.205,0.612-1.747,1.839-4.623c0.569-1.322,1.211-2.79,1.928-4.404l2.196-4.918c1.279-2.763,3.291-7.169,6.029-13.215
					c2.591-5.683,4.528-10.597,5.808-14.734c1.042-3.383,1.564-6.277,1.564-8.68c0-1.958-0.476-3.348-1.429-4.173
					c-1.04-0.841-2.377-0.789-4.013,0.156c-2.351,1.356-4.016,3.881-4.999,7.575c-0.327,1.218-0.489,2.547-0.489,3.991v2.474
					l-8.299,4.792V190.248z"/>
				<path fill="#FFFFFF" d="M154.395,196.841l14.902-49.51l8.433-4.87v40.907l5.399-3.116v9.789l-5.399,3.117l0.001,13.909
					l-8.433,4.869v-13.91l-14.902,8.604L154.395,196.841z M169.297,188.238v-20.176l-6.965,24.197L169.297,188.238z"/>
				<path fill="#FFFFFF" d="M212.257,118.509l6.875-3.97l-23.336,84.108l-6.876,3.969L212.257,118.509z"/>
				<path fill="#FFFFFF" d="M250.277,100.578v9.789l-11.824,61.644l-8.277,4.779l11.826-61.645l-17.067,9.854l0-9.79
					L250.277,100.578z"/>
			</g>
		</g>
		<g>
			<polygon fill="#8985FF" points="306.827,265.311 295.896,258.999 295.896,227.75 306.827,234.061 			"/>
			<path opacity="0.6" fill="#1CAAD9" d="M306.836,234.061l-6.805,3.923c-8.316,4.798-17.45,4.744-21.704-2.991
				c5.979,0,10.5-3.173,17.561-7.244L306.836,234.061z"/>
			<path fill="#8985FF" d="M289.089,124.219l111.106-64.145c6.687-3.861,12.741-4.226,17.122-1.696l10.931,6.311
				c-4.382-2.53-10.436-2.164-17.123,1.696L300.02,130.53c-13.374,7.721-24.215,26.499-24.215,41.942l0,51.536
				c0,7.721,2.711,13.147,7.093,15.677l-10.931-6.311c-4.382-2.529-7.092-7.955-7.092-15.676l-0.001-51.537
				C264.874,150.718,275.715,131.941,289.089,124.219z"/>
			<path fill="#5E58E8" d="M300.019,130.53l111.106-64.146c13.374-7.721,24.215-1.461,24.215,13.981l0.001,51.536
				c0,15.444-10.841,34.22-24.215,41.942l-74.775,43.17l-29.524,48.297l0-31.25l-6.806,3.928
				c-13.374,7.721-24.215,1.463-24.215-13.981l0-51.536C275.805,157.029,286.646,138.251,300.019,130.53z"/>
			<g opacity="0.9">
				<path fill="#FFFFFF" d="M357.829,108.05c14.262-8.233,23.096-5.59,23.096,8.173c0,18.556-16.391,30.478-16.391,44.856
					l-14.154,8.171c0-18.925,13.089-27.588,13.089-39.386c0-5.162-2.767-5.899-7.448-3.197c-5.217,3.011-7.984,8.173-8.09,15.61
					l-14.581,8.417C333.458,132.569,342.612,116.837,357.829,108.05z M366.345,179.944c0,6.267-3.832,12.903-9.152,15.976
					c-5.322,3.072-9.046,0.799-9.046-5.47c0-6.267,3.724-12.719,9.046-15.792C362.513,171.586,366.345,173.676,366.345,179.944z"/>
			</g>
		</g>
		<g>
			<path fill="#F8CD66" d="M193.749,255.635c14.024-8.097,26.721-8.863,35.91-3.557l16.374,9.45
				c-9.189-5.307-21.886-4.541-35.91,3.556c-28.048,16.192-50.783,55.573-50.783,87.959c0,16.193,5.684,27.571,14.874,32.877
				l-16.373-9.449c-9.19-5.307-14.875-16.685-14.875-32.876C142.966,311.207,165.703,271.828,193.749,255.635z"/>
			<path fill="#F8B225" d="M159.34,353.043c0,32.385,22.737,45.513,50.784,29.32c28.047-16.193,50.784-55.573,50.784-87.959
				c0-32.386-22.738-45.513-50.785-29.32C182.075,281.276,159.34,320.657,159.34,353.043z"/>
			<path fill="#FFFFFF" d="M167.035,348.6c0,27.479,19.291,38.617,43.089,24.877c23.797-13.738,43.088-47.152,43.088-74.629
				c-0.001-27.479-19.292-38.617-43.089-24.877C186.325,287.708,167.035,321.121,167.035,348.6z"/>
			<path fill="#B8B8B8" d="M208.996,372.826c23.797-13.738,43.088-47.152,43.087-74.629c0-13.409-4.601-22.91-12.069-27.546
				c8.13,4.355,13.196,14.127,13.197,28.197c0,27.478-19.291,60.891-43.088,74.629c-12.186,7.036-23.182,7.534-31.019,2.669
				C186.853,380.297,197.385,379.53,208.996,372.826z"/>
			<g>
				<path fill="#4F4AD1" d="M211.686,322.708l-1.326-1.256l25.293-36.739c0.483-0.702,1.172-0.991,1.539-0.644
					c0.367,0.347,0.271,1.196-0.211,1.898L211.686,322.708z"/>
				<path fill="#4F4AD1" d="M210.378,320.401l-2.386,5.638l-15.028-2.543c-1.019-0.172-1.311-1.574-0.651-3.13
					c0.658-1.557,2.018-2.68,3.037-2.507L210.378,320.401z"/>
				<g>
					<path fill="#F8B52F" d="M202.704,329c-0.039-0.271,0.135-0.645,0.388-0.837l39.998-30.279c0.254-0.191,0.491-0.128,0.531,0.141
						c0.04,0.271-0.134,0.646-0.388,0.836l-39.998,30.28C202.981,329.332,202.743,329.269,202.704,329z"/>
					<path fill="#F8B52F" d="M195.526,335.715c-0.718-0.311-0.832-1.08-0.337-2.308l8.222-6.224
						c0.676,0.343,0.789,1.111,0.337,2.307L195.526,335.715z"/>
				</g>
				<path fill="#F8B52F" d="M213.4,321.49c0,2.086-1.464,4.624-3.272,5.667c-1.806,1.042-3.272,0.197-3.272-1.889
					c0-2.087,1.466-4.624,3.272-5.668C211.937,318.558,213.4,319.405,213.4,321.49z"/>
				<path fill="#4F4AD1" d="M210.128,292.231c-0.371,0.215-0.676,0.05-0.688-0.371l-0.416-13.843
					c-0.014-0.442,0.299-0.995,0.688-1.22l0.833-0.48c0.389-0.225,0.701-0.032,0.688,0.425l-0.416,14.323
					C210.803,291.501,210.5,292.017,210.128,292.231z"/>
				<path fill="#4F4AD1" d="M183.153,338.954c0,0.428-0.294,0.95-0.666,1.179l-12.196,7.522c-0.389,0.24-0.713,0.065-0.713-0.384
					v-0.961c0-0.45,0.324-0.997,0.713-1.206l12.196-6.561C182.859,338.342,183.153,338.524,183.153,338.954z"/>
				<path fill="#4F4AD1" d="M210.128,354.526c0.372-0.213,0.675-0.05,0.689,0.372l0.417,13.842c0.012,0.441-0.299,0.996-0.688,1.22
					l-0.833,0.481c-0.389,0.224-0.702,0.032-0.688-0.426l0.416-14.322C209.452,355.257,209.757,354.742,210.128,354.526z"/>
				<path fill="#4F4AD1" d="M237.103,307.806c0-0.429,0.294-0.951,0.666-1.18l12.196-7.522c0.389-0.239,0.712-0.065,0.712,0.384
					v0.961c0,0.45-0.323,0.997-0.712,1.206l-12.196,6.561C237.397,308.416,237.103,308.234,237.103,307.806z"/>
			</g>
		</g>
	</g>
	<g>
		<g>
			<linearGradient id="SVGID_2_" gradientUnits="userSpaceOnUse" x1="569.8906" y1="578.4922" x2="675.8798" y2="753.7088">
				<stop  offset="0" style="stop-color:#6460E6"/>
				<stop  offset="0.3374" style="stop-color:#625EE3"/>
				<stop  offset="0.5715" style="stop-color:#5D59DA"/>
				<stop  offset="0.7743" style="stop-color:#534FCB"/>
				<stop  offset="0.9583" style="stop-color:#4642B5"/>
				<stop  offset="1" style="stop-color:#423EAF"/>
			</linearGradient>
			<path fill="url(#SVGID_2_)" d="M691.546,688.155L536.93,598.892c-0.438-0.256-0.783-0.256-1.036-0.115
				c-0.022-0.012-9.235,5.3-9.235,5.3c0.271-0.126,0.616-0.128,1.06,0.128l154.617,89.268c7.314,4.222,13.299,14.587,13.299,23.029
				v28.331c0,4.244-1.493,7.215-3.898,8.604l9.21-5.314c2.406-1.386,3.896-4.359,3.896-8.604v-28.328
				C704.842,702.745,698.86,692.381,691.546,688.155z"/>
			<path fill="#8985FF" d="M695.634,716.501c0-8.442-5.984-18.808-13.299-23.029l-154.617-89.268
				c-1.492-0.863-2.033,0.968-0.853,2.704c3.146,4.631,5.169,10.211,5.171,15.145l-0.002,28.33c0,8.497,5.987,18.811,13.299,23.03
				l137.002,79.097c7.312,4.223,13.299,0.823,13.299-7.678V716.501z"/>
			<g>
				<path fill="#F0F0FF" d="M615.674,701.383l-65.63-37.892c-2.713-1.564-4.907-5.366-4.907-8.498c0-3.131,2.194-4.398,4.907-2.834
					l65.63,37.892c2.713,1.566,4.906,5.368,4.906,8.5C620.58,701.682,618.387,702.951,615.674,701.383z"/>
				<path fill="#F0F0FF" d="M677.01,714.369l-126.966-73.304c-2.713-1.563-4.907-5.367-4.907-8.498s2.194-4.398,4.907-2.832
					l126.966,73.303c2.711,1.565,4.907,5.366,4.907,8.5C681.917,714.668,679.721,715.937,677.01,714.369z"/>
			</g>
		</g>
		<g>
			<linearGradient id="SVGID_3_" gradientUnits="userSpaceOnUse" x1="496.9482" y1="579.8633" x2="523.3654" y2="625.218">
				<stop  offset="0" style="stop-color:#6460E6"/>
				<stop  offset="0.5496" style="stop-color:#524ECA"/>
				<stop  offset="1" style="stop-color:#423EAF"/>
			</linearGradient>
			<path fill="url(#SVGID_3_)" d="M526.946,614.59c0-11.854-8.324-26.27-18.591-32.197c-5.131-2.962-9.777-3.243-13.141-1.304
				c-0.004,0.002-9.213,5.315-9.213,5.315c3.365-1.941,8.011-1.66,13.143,1.303c10.265,5.928,18.587,20.341,18.587,32.195
				c0,5.93-2.083,10.094-5.449,12.035l9.213-5.313C524.863,624.683,526.946,620.518,526.946,614.59z"/>
			<path fill="#8985FF" d="M499.145,587.707c-10.267-5.928-18.589-1.122-18.589,10.731c-0.001,11.854,8.32,26.269,18.589,32.195
				c10.265,5.928,18.587,1.123,18.587-10.731S509.41,593.635,499.145,587.707z"/>
			<g>
				<path fill="#F0F0FF" d="M499.145,595.182c3.649,2.106,6.608,7.229,6.608,11.442c0,4.214-2.959,5.922-6.608,3.815
					c-3.65-2.107-6.607-7.23-6.607-11.443C492.538,594.784,495.495,593.076,499.145,595.182z"/>
				<path fill="#F0F0FF" d="M499.145,626.787c-5.181-2.994-9.809-8.392-12.872-14.436c0.527-2.373,1.122-4.271,1.425-4.793
					c0.556-0.964,2.409-1.251,6.234-0.746c1.445,2.114,3.249,3.924,5.212,5.055c1.961,1.136,3.765,1.405,5.21,0.963
					c3.826,3.913,5.678,6.337,6.236,7.944c0.3,0.87,0.897,3.457,1.423,6.438C508.953,629.723,504.325,629.775,499.145,626.787z"/>
			</g>
		</g>
		<g>
			<linearGradient id="SVGID_4_" gradientUnits="userSpaceOnUse" x1="777.9111" y1="820.0059" x2="804.6464" y2="865.4797">
				<stop  offset="0" style="stop-color:#FFB947"/>
				<stop  offset="0.532" style="stop-color:#F3A62B"/>
				<stop  offset="1" style="stop-color:#E6930E"/>
			</linearGradient>
			<path fill="url(#SVGID_4_)" d="M808.177,854.871c0-11.852-8.321-26.268-18.589-32.195c-5.131-2.962-9.777-3.243-13.142-1.304
				c-0.004,0.002-9.212,5.314-9.212,5.314c3.363-1.941,8.009-1.661,13.142,1.304c10.266,5.925,18.589,20.341,18.589,32.195
				c0,5.928-2.083,10.093-5.449,12.035l9.212-5.314C806.096,864.967,808.177,860.799,808.177,854.871z"/>
			<path fill="#FED645" d="M780.376,827.99c-10.266-5.928-18.587-1.123-18.587,10.732c-0.002,11.854,8.321,26.268,18.587,32.195
				c10.266,5.927,18.589,1.122,18.589-10.732S790.642,833.915,780.376,827.99z"/>
			<g>
				<path fill="#FFFAE8" d="M780.376,835.465c3.648,2.105,6.607,7.23,6.607,11.442c0,4.213-2.959,5.921-6.607,3.813
					c-3.649-2.105-6.606-7.229-6.606-11.442S776.727,833.356,780.376,835.465z"/>
				<path fill="#FFFAE8" d="M780.376,867.067c-5.179-2.991-9.809-8.389-12.871-14.432c0.528-2.374,1.123-4.272,1.426-4.797
					c0.557-0.962,2.408-1.247,6.233-0.742c1.446,2.113,3.249,3.92,5.212,5.056c1.963,1.131,3.767,1.405,5.212,0.96
					c3.823,3.913,5.678,6.336,6.233,7.942c0.303,0.873,0.899,3.46,1.424,6.44C790.185,870.006,785.558,870.059,780.376,867.067z"/>
			</g>
		</g>
		<g>
			<linearGradient id="SVGID_5_" gradientUnits="userSpaceOnUse" x1="741.2148" y1="819.8086" x2="761.179" y2="852.0291">
				<stop  offset="0" style="stop-color:#FFAB21"/>
				<stop  offset="1" style="stop-color:#E6930E"/>
			</linearGradient>
			<path fill="url(#SVGID_5_)" d="M759.304,811.223c-1.714,1.598-2.735,4.25-2.735,7.749v28.331c0,4.244-1.488,7.213-3.896,8.602
				l-9.209,5.311c2.401-1.385,3.896-4.359,3.896-8.6v-28.331c0-4.931,2.024-8.172,5.17-9.173c0.059-0.016,0.113-0.04,0.162-0.075
				L759.304,811.223z"/>
			<path fill="#FFB947" d="M761.738,809.8c-0.654,0.201-1.368,0.572-1.87,0.96c-1.302,0.92,1.689-0.839-7.173,4.276
				c0.935-0.548,0.406-2.785-1.021-3.611l-154.617-89.272c-3.651-2.11-6.979-2.301-9.386-0.912l9.209-5.309
				c2.41-1.39,5.734-1.203,9.392,0.913l154.617,89.265C762.382,806.969,762.918,809.422,761.738,809.8z"/>
			<path fill="#FED645" d="M751.679,811.423L597.06,722.154c-7.314-4.222-13.299-0.768-13.299,7.678v28.331
				c0,8.498,5.986,18.812,13.299,23.031l137.002,79.097c7.31,4.222,13.298,0.822,13.298-7.676v-28.331
				c0-4.933,2.026-8.172,5.17-9.175C753.71,814.736,753.169,812.283,751.679,811.423z"/>
			<g>
				<path fill="#FFFAE8" d="M716.605,838.046L601.6,771.648c-2.711-1.566-4.906-5.364-4.906-8.498s2.195-4.398,4.906-2.833
					l115.006,66.397c2.713,1.565,4.906,5.367,4.906,8.498C721.512,838.346,719.318,839.613,716.605,838.046z"/>
				<path fill="#FFFAE8" d="M728.567,821.579L601.6,748.276c-2.711-1.566-4.906-5.367-4.906-8.499c0-3.131,2.195-4.397,4.906-2.83
					l126.968,73.3c2.714,1.566,4.907,5.368,4.907,8.499S731.281,823.147,728.567,821.579z"/>
			</g>
		</g>
	</g>
	<g>
		<g>
			<g opacity="0.15">
				<path fill="#7974F2" d="M886.024,790.869c9.573,5.526,9.573,14.49,0,20.018c-9.572,5.529-25.097,5.529-34.671,0
					c-9.574-5.527-9.574-14.491,0-20.018C860.928,785.342,876.452,785.342,886.024,790.869z"/>
			</g>
			<linearGradient id="SVGID_6_" gradientUnits="userSpaceOnUse" x1="863.9658" y1="783.0244" x2="873.4111" y2="783.0244">
				<stop  offset="0" style="stop-color:#746FF2"/>
				<stop  offset="1" style="stop-color:#3A3699"/>
			</linearGradient>
			<path fill="url(#SVGID_6_)" d="M873.399,800.343l0.012-37.431h-9.443v37.431c-0.031,0.722,0.43,1.448,1.382,1.996
				c1.847,1.063,4.833,1.063,6.678,0C872.979,801.791,873.431,801.064,873.399,800.343z"/>
			<linearGradient id="SVGID_7_" gradientUnits="userSpaceOnUse" x1="837.7764" y1="745.7109" x2="899.5205" y2="745.7109">
				<stop  offset="0" style="stop-color:#9794FF"/>
				<stop  offset="0.1805" style="stop-color:#928FFB"/>
				<stop  offset="0.3991" style="stop-color:#8380EE"/>
				<stop  offset="0.6372" style="stop-color:#6B68D9"/>
				<stop  offset="0.8876" style="stop-color:#4A46BC"/>
				<stop  offset="1" style="stop-color:#3834AD"/>
			</linearGradient>
			<path fill="url(#SVGID_7_)" d="M902.765,758.695c-0.719-2.379,0.745,0.29-28.611-46.442c-0.542-0.865-1.251-1.444-1.251-1.444
				c-2.803-2.365-7.176-2.04-9.514,1.475c-30.697,49.49-26.414,42.58-26.917,43.421c-4.734,7.871-0.297,15.561,7.64,20.337
				C867.273,789.979,908.692,778.231,902.765,758.695z"/>
		</g>
		<g>
			<g opacity="0.15">
				<path fill="#7974F2" d="M922.285,815.034c7.261,4.193,7.261,10.992,0,15.186c-7.262,4.19-19.037,4.19-26.299,0
					c-7.264-4.193-7.264-10.992,0-15.186C903.248,810.844,915.023,810.844,922.285,815.034z"/>
			</g>
			<linearGradient id="SVGID_8_" gradientUnits="userSpaceOnUse" x1="905.5527" y1="809.0859" x2="912.7168" y2="809.0859">
				<stop  offset="0" style="stop-color:#746FF2"/>
				<stop  offset="1" style="stop-color:#3A3699"/>
			</linearGradient>
			<path fill="url(#SVGID_8_)" d="M912.71,822.223l0.007-28.394h-7.163v28.394c-0.023,0.544,0.326,1.095,1.049,1.514
				c1.398,0.808,3.667,0.808,5.066,0C912.39,823.317,912.732,822.767,912.71,822.223z"/>
			<linearGradient id="SVGID_9_" gradientUnits="userSpaceOnUse" x1="885.6865" y1="780.7822" x2="932.5211" y2="780.7822">
				<stop  offset="0" style="stop-color:#9794FF"/>
				<stop  offset="0.1805" style="stop-color:#928FFB"/>
				<stop  offset="0.3991" style="stop-color:#8380EE"/>
				<stop  offset="0.6372" style="stop-color:#6B68D9"/>
				<stop  offset="0.8876" style="stop-color:#4A46BC"/>
				<stop  offset="1" style="stop-color:#3834AD"/>
			</linearGradient>
			<path fill="url(#SVGID_9_)" d="M934.981,790.63c-0.544-1.805,0.567,0.22-21.7-35.229c-0.412-0.655-0.95-1.095-0.95-1.095
				c-2.125-1.793-5.444-1.549-7.215,1.119c-23.286,37.54-20.038,32.299-20.42,32.935c-3.591,5.97-0.224,11.804,5.798,15.427
				C908.061,814.36,939.479,805.45,934.981,790.63z"/>
		</g>
	</g>
</g>
</svg>
